<?xml version="1.0" encoding="utf-8" standalone="no"?>
<!DOCTYPE svg PUBLIC "-//W3C//DTD SVG 1.1//EN"
  "http://www.w3.org/Graphics/SVG/1.1/DTD/svg11.dtd">
<!-- Created with matplotlib (https://matplotlib.org/) -->
<svg height="576pt" version="1.1" viewBox="0 100 576 476" width="576pt" xmlns="http://www.w3.org/2000/svg" xmlns:xlink="http://www.w3.org/1999/xlink">
 <metadata>
  <rdf:RDF xmlns:cc="http://creativecommons.org/ns#" xmlns:dc="http://purl.org/dc/elements/1.1/" xmlns:rdf="http://www.w3.org/1999/02/22-rdf-syntax-ns#">
   <cc:Work>
    <dc:type rdf:resource="http://purl.org/dc/dcmitype/StillImage"/>
    <dc:date>2020-10-24T17:00:00.365592</dc:date>
    <dc:format>image/svg+xml</dc:format>
    <dc:creator>
     <cc:Agent>
      <dc:title>Matplotlib v3.3.1, https://matplotlib.org/</dc:title>
     </cc:Agent>
    </dc:creator>
   </cc:Work>
  </rdf:RDF>
 </metadata>
 <defs>
  <style type="text/css">*{stroke-linecap:butt;stroke-linejoin:round;}</style>
 </defs>
 <g id="figure_1">
  <g id="patch_1">
   <path d="M 0 576 
L 576 576 
L 576 0 
L 0 0 
z
" style="fill:#ffffff;"/>
  </g>
  <g id="axes_1">
   <g id="patch_2">
    <path d="M 72 512.64 
L 518.4 512.64 
L 518.4 69.12 
L 72 69.12 
z
" style="fill:#ffffff;"/>
   </g>
   <g id="patch_3">
    <path clip-path="url(#p0af0033d15)" d="M 92.290909 512.64 
L 96.390083 512.64 
L 96.390083 90.24 
L 92.290909 90.24 
z
" style="fill:#1f77b4;opacity:0.5;"/>
   </g>
   <g id="patch_4">
    <path clip-path="url(#p0af0033d15)" d="M 96.390083 512.64 
L 100.489256 512.64 
L 100.489256 159.516052 
L 96.390083 159.516052 
z
" style="fill:#1f77b4;opacity:0.5;"/>
   </g>
   <g id="patch_5">
    <path clip-path="url(#p0af0033d15)" d="M 100.489256 512.64 
L 104.58843 512.64 
L 104.58843 277.837097 
L 100.489256 277.837097 
z
" style="fill:#1f77b4;opacity:0.5;"/>
   </g>
   <g id="patch_6">
    <path clip-path="url(#p0af0033d15)" d="M 104.58843 512.64 
L 108.687603 512.64 
L 108.687603 360.600522 
L 104.58843 360.600522 
z
" style="fill:#1f77b4;opacity:0.5;"/>
   </g>
   <g id="patch_7">
    <path clip-path="url(#p0af0033d15)" d="M 108.687603 512.64 
L 112.786777 512.64 
L 112.786777 401.062642 
L 108.687603 401.062642 
z
" style="fill:#1f77b4;opacity:0.5;"/>
   </g>
   <g id="patch_8">
    <path clip-path="url(#p0af0033d15)" d="M 112.786777 512.64 
L 116.88595 512.64 
L 116.88595 442.137823 
L 112.786777 442.137823 
z
" style="fill:#1f77b4;opacity:0.5;"/>
   </g>
   <g id="patch_9">
    <path clip-path="url(#p0af0033d15)" d="M 116.88595 512.64 
L 120.985124 512.64 
L 120.985124 455.625196 
L 116.88595 455.625196 
z
" style="fill:#1f77b4;opacity:0.5;"/>
   </g>
   <g id="patch_10">
    <path clip-path="url(#p0af0033d15)" d="M 120.985124 512.64 
L 125.084298 512.64 
L 125.084298 471.564819 
L 120.985124 471.564819 
z
" style="fill:#1f77b4;opacity:0.5;"/>
   </g>
   <g id="patch_11">
    <path clip-path="url(#p0af0033d15)" d="M 125.084298 512.64 
L 129.183471 512.64 
L 129.183471 483.213004 
L 125.084298 483.213004 
z
" style="fill:#1f77b4;opacity:0.5;"/>
   </g>
   <g id="patch_12">
    <path clip-path="url(#p0af0033d15)" d="M 129.183471 512.64 
L 133.282645 512.64 
L 133.282645 483.213004 
L 129.183471 483.213004 
z
" style="fill:#1f77b4;opacity:0.5;"/>
   </g>
   <g id="patch_13">
    <path clip-path="url(#p0af0033d15)" d="M 133.282645 512.64 
L 137.381818 512.64 
L 137.381818 486.891379 
L 133.282645 486.891379 
z
" style="fill:#1f77b4;opacity:0.5;"/>
   </g>
   <g id="patch_14">
    <path clip-path="url(#p0af0033d15)" d="M 137.381818 512.64 
L 141.480992 512.64 
L 141.480992 494.86119 
L 137.381818 494.86119 
z
" style="fill:#1f77b4;opacity:0.5;"/>
   </g>
   <g id="patch_15">
    <path clip-path="url(#p0af0033d15)" d="M 141.480992 512.64 
L 145.580165 512.64 
L 145.580165 494.86119 
L 141.480992 494.86119 
z
" style="fill:#1f77b4;opacity:0.5;"/>
   </g>
   <g id="patch_16">
    <path clip-path="url(#p0af0033d15)" d="M 145.580165 512.64 
L 149.679339 512.64 
L 149.679339 495.474253 
L 145.580165 495.474253 
z
" style="fill:#1f77b4;opacity:0.5;"/>
   </g>
   <g id="patch_17">
    <path clip-path="url(#p0af0033d15)" d="M 149.679339 512.64 
L 153.778512 512.64 
L 153.778512 500.378752 
L 149.679339 500.378752 
z
" style="fill:#1f77b4;opacity:0.5;"/>
   </g>
   <g id="patch_18">
    <path clip-path="url(#p0af0033d15)" d="M 153.778512 512.64 
L 157.877686 512.64 
L 157.877686 496.087315 
L 153.778512 496.087315 
z
" style="fill:#1f77b4;opacity:0.5;"/>
   </g>
   <g id="patch_19">
    <path clip-path="url(#p0af0033d15)" d="M 157.877686 512.64 
L 161.97686 512.64 
L 161.97686 495.474253 
L 157.877686 495.474253 
z
" style="fill:#1f77b4;opacity:0.5;"/>
   </g>
   <g id="patch_20">
    <path clip-path="url(#p0af0033d15)" d="M 161.97686 512.64 
L 166.076033 512.64 
L 166.076033 501.604877 
L 161.97686 501.604877 
z
" style="fill:#1f77b4;opacity:0.5;"/>
   </g>
   <g id="patch_21">
    <path clip-path="url(#p0af0033d15)" d="M 166.076033 512.64 
L 170.175207 512.64 
L 170.175207 504.670189 
L 166.076033 504.670189 
z
" style="fill:#1f77b4;opacity:0.5;"/>
   </g>
   <g id="patch_22">
    <path clip-path="url(#p0af0033d15)" d="M 170.175207 512.64 
L 174.27438 512.64 
L 174.27438 504.670189 
L 170.175207 504.670189 
z
" style="fill:#1f77b4;opacity:0.5;"/>
   </g>
   <g id="patch_23">
    <path clip-path="url(#p0af0033d15)" d="M 174.27438 512.64 
L 178.373554 512.64 
L 178.373554 501.604877 
L 174.27438 501.604877 
z
" style="fill:#1f77b4;opacity:0.5;"/>
   </g>
   <g id="patch_24">
    <path clip-path="url(#p0af0033d15)" d="M 178.373554 512.64 
L 182.472727 512.64 
L 182.472727 507.122438 
L 178.373554 507.122438 
z
" style="fill:#1f77b4;opacity:0.5;"/>
   </g>
   <g id="patch_25">
    <path clip-path="url(#p0af0033d15)" d="M 182.472727 512.64 
L 186.571901 512.64 
L 186.571901 503.444064 
L 182.472727 503.444064 
z
" style="fill:#1f77b4;opacity:0.5;"/>
   </g>
   <g id="patch_26">
    <path clip-path="url(#p0af0033d15)" d="M 186.571901 512.64 
L 190.671074 512.64 
L 190.671074 505.283251 
L 186.571901 505.283251 
z
" style="fill:#1f77b4;opacity:0.5;"/>
   </g>
   <g id="patch_27">
    <path clip-path="url(#p0af0033d15)" d="M 190.671074 512.64 
L 194.770248 512.64 
L 194.770248 510.800813 
L 190.671074 510.800813 
z
" style="fill:#1f77b4;opacity:0.5;"/>
   </g>
   <g id="patch_28">
    <path clip-path="url(#p0af0033d15)" d="M 194.770248 512.64 
L 198.869421 512.64 
L 198.869421 505.896313 
L 194.770248 505.896313 
z
" style="fill:#1f77b4;opacity:0.5;"/>
   </g>
   <g id="patch_29">
    <path clip-path="url(#p0af0033d15)" d="M 198.869421 512.64 
L 202.968595 512.64 
L 202.968595 508.348563 
L 198.869421 508.348563 
z
" style="fill:#1f77b4;opacity:0.5;"/>
   </g>
   <g id="patch_30">
    <path clip-path="url(#p0af0033d15)" d="M 202.968595 512.64 
L 207.067769 512.64 
L 207.067769 508.348563 
L 202.968595 508.348563 
z
" style="fill:#1f77b4;opacity:0.5;"/>
   </g>
   <g id="patch_31">
    <path clip-path="url(#p0af0033d15)" d="M 207.067769 512.64 
L 211.166942 512.64 
L 211.166942 508.348563 
L 207.067769 508.348563 
z
" style="fill:#1f77b4;opacity:0.5;"/>
   </g>
   <g id="patch_32">
    <path clip-path="url(#p0af0033d15)" d="M 211.166942 512.64 
L 215.266116 512.64 
L 215.266116 508.348563 
L 211.166942 508.348563 
z
" style="fill:#1f77b4;opacity:0.5;"/>
   </g>
   <g id="patch_33">
    <path clip-path="url(#p0af0033d15)" d="M 215.266116 512.64 
L 219.365289 512.64 
L 219.365289 508.961626 
L 215.266116 508.961626 
z
" style="fill:#1f77b4;opacity:0.5;"/>
   </g>
   <g id="patch_34">
    <path clip-path="url(#p0af0033d15)" d="M 219.365289 512.64 
L 223.464463 512.64 
L 223.464463 508.961626 
L 219.365289 508.961626 
z
" style="fill:#1f77b4;opacity:0.5;"/>
   </g>
   <g id="patch_35">
    <path clip-path="url(#p0af0033d15)" d="M 223.464463 512.64 
L 227.563636 512.64 
L 227.563636 508.961626 
L 223.464463 508.961626 
z
" style="fill:#1f77b4;opacity:0.5;"/>
   </g>
   <g id="patch_36">
    <path clip-path="url(#p0af0033d15)" d="M 227.563636 512.64 
L 231.66281 512.64 
L 231.66281 510.18775 
L 227.563636 510.18775 
z
" style="fill:#1f77b4;opacity:0.5;"/>
   </g>
   <g id="patch_37">
    <path clip-path="url(#p0af0033d15)" d="M 231.66281 512.64 
L 235.761983 512.64 
L 235.761983 510.18775 
L 231.66281 510.18775 
z
" style="fill:#1f77b4;opacity:0.5;"/>
   </g>
   <g id="patch_38">
    <path clip-path="url(#p0af0033d15)" d="M 235.761983 512.64 
L 239.861157 512.64 
L 239.861157 508.348563 
L 235.761983 508.348563 
z
" style="fill:#1f77b4;opacity:0.5;"/>
   </g>
   <g id="patch_39">
    <path clip-path="url(#p0af0033d15)" d="M 239.861157 512.64 
L 243.960331 512.64 
L 243.960331 507.735501 
L 239.861157 507.735501 
z
" style="fill:#1f77b4;opacity:0.5;"/>
   </g>
   <g id="patch_40">
    <path clip-path="url(#p0af0033d15)" d="M 243.960331 512.64 
L 248.059504 512.64 
L 248.059504 509.574688 
L 243.960331 509.574688 
z
" style="fill:#1f77b4;opacity:0.5;"/>
   </g>
   <g id="patch_41">
    <path clip-path="url(#p0af0033d15)" d="M 248.059504 512.64 
L 252.158678 512.64 
L 252.158678 511.413875 
L 248.059504 511.413875 
z
" style="fill:#1f77b4;opacity:0.5;"/>
   </g>
   <g id="patch_42">
    <path clip-path="url(#p0af0033d15)" d="M 252.158678 512.64 
L 256.257851 512.64 
L 256.257851 510.18775 
L 252.158678 510.18775 
z
" style="fill:#1f77b4;opacity:0.5;"/>
   </g>
   <g id="patch_43">
    <path clip-path="url(#p0af0033d15)" d="M 256.257851 512.64 
L 260.357025 512.64 
L 260.357025 510.18775 
L 256.257851 510.18775 
z
" style="fill:#1f77b4;opacity:0.5;"/>
   </g>
   <g id="patch_44">
    <path clip-path="url(#p0af0033d15)" d="M 260.357025 512.64 
L 264.456198 512.64 
L 264.456198 510.18775 
L 260.357025 510.18775 
z
" style="fill:#1f77b4;opacity:0.5;"/>
   </g>
   <g id="patch_45">
    <path clip-path="url(#p0af0033d15)" d="M 264.456198 512.64 
L 268.555372 512.64 
L 268.555372 509.574688 
L 264.456198 509.574688 
z
" style="fill:#1f77b4;opacity:0.5;"/>
   </g>
   <g id="patch_46">
    <path clip-path="url(#p0af0033d15)" d="M 268.555372 512.64 
L 272.654545 512.64 
L 272.654545 511.413875 
L 268.555372 511.413875 
z
" style="fill:#1f77b4;opacity:0.5;"/>
   </g>
   <g id="patch_47">
    <path clip-path="url(#p0af0033d15)" d="M 272.654545 512.64 
L 276.753719 512.64 
L 276.753719 508.961626 
L 272.654545 508.961626 
z
" style="fill:#1f77b4;opacity:0.5;"/>
   </g>
   <g id="patch_48">
    <path clip-path="url(#p0af0033d15)" d="M 276.753719 512.64 
L 280.852893 512.64 
L 280.852893 512.64 
L 276.753719 512.64 
z
" style="fill:#1f77b4;opacity:0.5;"/>
   </g>
   <g id="patch_49">
    <path clip-path="url(#p0af0033d15)" d="M 280.852893 512.64 
L 284.952066 512.64 
L 284.952066 508.348563 
L 280.852893 508.348563 
z
" style="fill:#1f77b4;opacity:0.5;"/>
   </g>
   <g id="patch_50">
    <path clip-path="url(#p0af0033d15)" d="M 284.952066 512.64 
L 289.05124 512.64 
L 289.05124 512.026938 
L 284.952066 512.026938 
z
" style="fill:#1f77b4;opacity:0.5;"/>
   </g>
   <g id="patch_51">
    <path clip-path="url(#p0af0033d15)" d="M 289.05124 512.64 
L 293.150413 512.64 
L 293.150413 510.800813 
L 289.05124 510.800813 
z
" style="fill:#1f77b4;opacity:0.5;"/>
   </g>
   <g id="patch_52">
    <path clip-path="url(#p0af0033d15)" d="M 293.150413 512.64 
L 297.249587 512.64 
L 297.249587 511.413875 
L 293.150413 511.413875 
z
" style="fill:#1f77b4;opacity:0.5;"/>
   </g>
   <g id="patch_53">
    <path clip-path="url(#p0af0033d15)" d="M 297.249587 512.64 
L 301.34876 512.64 
L 301.34876 511.413875 
L 297.249587 511.413875 
z
" style="fill:#1f77b4;opacity:0.5;"/>
   </g>
   <g id="patch_54">
    <path clip-path="url(#p0af0033d15)" d="M 301.34876 512.64 
L 305.447934 512.64 
L 305.447934 509.574688 
L 301.34876 509.574688 
z
" style="fill:#1f77b4;opacity:0.5;"/>
   </g>
   <g id="patch_55">
    <path clip-path="url(#p0af0033d15)" d="M 305.447934 512.64 
L 309.547107 512.64 
L 309.547107 512.026938 
L 305.447934 512.026938 
z
" style="fill:#1f77b4;opacity:0.5;"/>
   </g>
   <g id="patch_56">
    <path clip-path="url(#p0af0033d15)" d="M 309.547107 512.64 
L 313.646281 512.64 
L 313.646281 510.18775 
L 309.547107 510.18775 
z
" style="fill:#1f77b4;opacity:0.5;"/>
   </g>
   <g id="patch_57">
    <path clip-path="url(#p0af0033d15)" d="M 313.646281 512.64 
L 317.745455 512.64 
L 317.745455 508.961626 
L 313.646281 508.961626 
z
" style="fill:#1f77b4;opacity:0.5;"/>
   </g>
   <g id="patch_58">
    <path clip-path="url(#p0af0033d15)" d="M 317.745455 512.64 
L 321.844628 512.64 
L 321.844628 511.413875 
L 317.745455 511.413875 
z
" style="fill:#1f77b4;opacity:0.5;"/>
   </g>
   <g id="patch_59">
    <path clip-path="url(#p0af0033d15)" d="M 321.844628 512.64 
L 325.943802 512.64 
L 325.943802 510.18775 
L 321.844628 510.18775 
z
" style="fill:#1f77b4;opacity:0.5;"/>
   </g>
   <g id="patch_60">
    <path clip-path="url(#p0af0033d15)" d="M 325.943802 512.64 
L 330.042975 512.64 
L 330.042975 511.413875 
L 325.943802 511.413875 
z
" style="fill:#1f77b4;opacity:0.5;"/>
   </g>
   <g id="patch_61">
    <path clip-path="url(#p0af0033d15)" d="M 330.042975 512.64 
L 334.142149 512.64 
L 334.142149 512.026938 
L 330.042975 512.026938 
z
" style="fill:#1f77b4;opacity:0.5;"/>
   </g>
   <g id="patch_62">
    <path clip-path="url(#p0af0033d15)" d="M 334.142149 512.64 
L 338.241322 512.64 
L 338.241322 510.800813 
L 334.142149 510.800813 
z
" style="fill:#1f77b4;opacity:0.5;"/>
   </g>
   <g id="patch_63">
    <path clip-path="url(#p0af0033d15)" d="M 338.241322 512.64 
L 342.340496 512.64 
L 342.340496 511.413875 
L 338.241322 511.413875 
z
" style="fill:#1f77b4;opacity:0.5;"/>
   </g>
   <g id="patch_64">
    <path clip-path="url(#p0af0033d15)" d="M 342.340496 512.64 
L 346.439669 512.64 
L 346.439669 512.64 
L 342.340496 512.64 
z
" style="fill:#1f77b4;opacity:0.5;"/>
   </g>
   <g id="patch_65">
    <path clip-path="url(#p0af0033d15)" d="M 346.439669 512.64 
L 350.538843 512.64 
L 350.538843 510.800813 
L 346.439669 510.800813 
z
" style="fill:#1f77b4;opacity:0.5;"/>
   </g>
   <g id="patch_66">
    <path clip-path="url(#p0af0033d15)" d="M 350.538843 512.64 
L 354.638017 512.64 
L 354.638017 512.64 
L 350.538843 512.64 
z
" style="fill:#1f77b4;opacity:0.5;"/>
   </g>
   <g id="patch_67">
    <path clip-path="url(#p0af0033d15)" d="M 354.638017 512.64 
L 358.73719 512.64 
L 358.73719 512.026938 
L 354.638017 512.026938 
z
" style="fill:#1f77b4;opacity:0.5;"/>
   </g>
   <g id="patch_68">
    <path clip-path="url(#p0af0033d15)" d="M 358.73719 512.64 
L 362.836364 512.64 
L 362.836364 510.800813 
L 358.73719 510.800813 
z
" style="fill:#1f77b4;opacity:0.5;"/>
   </g>
   <g id="patch_69">
    <path clip-path="url(#p0af0033d15)" d="M 362.836364 512.64 
L 366.935537 512.64 
L 366.935537 512.64 
L 362.836364 512.64 
z
" style="fill:#1f77b4;opacity:0.5;"/>
   </g>
   <g id="patch_70">
    <path clip-path="url(#p0af0033d15)" d="M 366.935537 512.64 
L 371.034711 512.64 
L 371.034711 511.413875 
L 366.935537 511.413875 
z
" style="fill:#1f77b4;opacity:0.5;"/>
   </g>
   <g id="patch_71">
    <path clip-path="url(#p0af0033d15)" d="M 371.034711 512.64 
L 375.133884 512.64 
L 375.133884 512.64 
L 371.034711 512.64 
z
" style="fill:#1f77b4;opacity:0.5;"/>
   </g>
   <g id="patch_72">
    <path clip-path="url(#p0af0033d15)" d="M 375.133884 512.64 
L 379.233058 512.64 
L 379.233058 510.800813 
L 375.133884 510.800813 
z
" style="fill:#1f77b4;opacity:0.5;"/>
   </g>
   <g id="patch_73">
    <path clip-path="url(#p0af0033d15)" d="M 379.233058 512.64 
L 383.332231 512.64 
L 383.332231 510.800813 
L 379.233058 510.800813 
z
" style="fill:#1f77b4;opacity:0.5;"/>
   </g>
   <g id="patch_74">
    <path clip-path="url(#p0af0033d15)" d="M 383.332231 512.64 
L 387.431405 512.64 
L 387.431405 511.413875 
L 383.332231 511.413875 
z
" style="fill:#1f77b4;opacity:0.5;"/>
   </g>
   <g id="patch_75">
    <path clip-path="url(#p0af0033d15)" d="M 387.431405 512.64 
L 391.530579 512.64 
L 391.530579 512.64 
L 387.431405 512.64 
z
" style="fill:#1f77b4;opacity:0.5;"/>
   </g>
   <g id="patch_76">
    <path clip-path="url(#p0af0033d15)" d="M 391.530579 512.64 
L 395.629752 512.64 
L 395.629752 512.64 
L 391.530579 512.64 
z
" style="fill:#1f77b4;opacity:0.5;"/>
   </g>
   <g id="patch_77">
    <path clip-path="url(#p0af0033d15)" d="M 395.629752 512.64 
L 399.728926 512.64 
L 399.728926 512.026938 
L 395.629752 512.026938 
z
" style="fill:#1f77b4;opacity:0.5;"/>
   </g>
   <g id="patch_78">
    <path clip-path="url(#p0af0033d15)" d="M 399.728926 512.64 
L 403.828099 512.64 
L 403.828099 510.800813 
L 399.728926 510.800813 
z
" style="fill:#1f77b4;opacity:0.5;"/>
   </g>
   <g id="patch_79">
    <path clip-path="url(#p0af0033d15)" d="M 403.828099 512.64 
L 407.927273 512.64 
L 407.927273 511.413875 
L 403.828099 511.413875 
z
" style="fill:#1f77b4;opacity:0.5;"/>
   </g>
   <g id="patch_80">
    <path clip-path="url(#p0af0033d15)" d="M 407.927273 512.64 
L 412.026446 512.64 
L 412.026446 512.64 
L 407.927273 512.64 
z
" style="fill:#1f77b4;opacity:0.5;"/>
   </g>
   <g id="patch_81">
    <path clip-path="url(#p0af0033d15)" d="M 412.026446 512.64 
L 416.12562 512.64 
L 416.12562 511.413875 
L 412.026446 511.413875 
z
" style="fill:#1f77b4;opacity:0.5;"/>
   </g>
   <g id="patch_82">
    <path clip-path="url(#p0af0033d15)" d="M 416.12562 512.64 
L 420.224793 512.64 
L 420.224793 511.413875 
L 416.12562 511.413875 
z
" style="fill:#1f77b4;opacity:0.5;"/>
   </g>
   <g id="patch_83">
    <path clip-path="url(#p0af0033d15)" d="M 420.224793 512.64 
L 424.323967 512.64 
L 424.323967 511.413875 
L 420.224793 511.413875 
z
" style="fill:#1f77b4;opacity:0.5;"/>
   </g>
   <g id="patch_84">
    <path clip-path="url(#p0af0033d15)" d="M 424.323967 512.64 
L 428.42314 512.64 
L 428.42314 511.413875 
L 424.323967 511.413875 
z
" style="fill:#1f77b4;opacity:0.5;"/>
   </g>
   <g id="patch_85">
    <path clip-path="url(#p0af0033d15)" d="M 428.42314 512.64 
L 432.522314 512.64 
L 432.522314 510.18775 
L 428.42314 510.18775 
z
" style="fill:#1f77b4;opacity:0.5;"/>
   </g>
   <g id="patch_86">
    <path clip-path="url(#p0af0033d15)" d="M 432.522314 512.64 
L 436.621488 512.64 
L 436.621488 512.026938 
L 432.522314 512.026938 
z
" style="fill:#1f77b4;opacity:0.5;"/>
   </g>
   <g id="patch_87">
    <path clip-path="url(#p0af0033d15)" d="M 436.621488 512.64 
L 440.720661 512.64 
L 440.720661 512.026938 
L 436.621488 512.026938 
z
" style="fill:#1f77b4;opacity:0.5;"/>
   </g>
   <g id="patch_88">
    <path clip-path="url(#p0af0033d15)" d="M 440.720661 512.64 
L 444.819835 512.64 
L 444.819835 511.413875 
L 440.720661 511.413875 
z
" style="fill:#1f77b4;opacity:0.5;"/>
   </g>
   <g id="patch_89">
    <path clip-path="url(#p0af0033d15)" d="M 444.819835 512.64 
L 448.919008 512.64 
L 448.919008 512.026938 
L 444.819835 512.026938 
z
" style="fill:#1f77b4;opacity:0.5;"/>
   </g>
   <g id="patch_90">
    <path clip-path="url(#p0af0033d15)" d="M 448.919008 512.64 
L 453.018182 512.64 
L 453.018182 512.026938 
L 448.919008 512.026938 
z
" style="fill:#1f77b4;opacity:0.5;"/>
   </g>
   <g id="patch_91">
    <path clip-path="url(#p0af0033d15)" d="M 453.018182 512.64 
L 457.117355 512.64 
L 457.117355 512.026938 
L 453.018182 512.026938 
z
" style="fill:#1f77b4;opacity:0.5;"/>
   </g>
   <g id="patch_92">
    <path clip-path="url(#p0af0033d15)" d="M 457.117355 512.64 
L 461.216529 512.64 
L 461.216529 510.800813 
L 457.117355 510.800813 
z
" style="fill:#1f77b4;opacity:0.5;"/>
   </g>
   <g id="patch_93">
    <path clip-path="url(#p0af0033d15)" d="M 461.216529 512.64 
L 465.315702 512.64 
L 465.315702 512.64 
L 461.216529 512.64 
z
" style="fill:#1f77b4;opacity:0.5;"/>
   </g>
   <g id="patch_94">
    <path clip-path="url(#p0af0033d15)" d="M 465.315702 512.64 
L 469.414876 512.64 
L 469.414876 512.026938 
L 465.315702 512.026938 
z
" style="fill:#1f77b4;opacity:0.5;"/>
   </g>
   <g id="patch_95">
    <path clip-path="url(#p0af0033d15)" d="M 469.414876 512.64 
L 473.51405 512.64 
L 473.51405 512.026938 
L 469.414876 512.026938 
z
" style="fill:#1f77b4;opacity:0.5;"/>
   </g>
   <g id="patch_96">
    <path clip-path="url(#p0af0033d15)" d="M 473.51405 512.64 
L 477.613223 512.64 
L 477.613223 511.413875 
L 473.51405 511.413875 
z
" style="fill:#1f77b4;opacity:0.5;"/>
   </g>
   <g id="patch_97">
    <path clip-path="url(#p0af0033d15)" d="M 477.613223 512.64 
L 481.712397 512.64 
L 481.712397 510.800813 
L 477.613223 510.800813 
z
" style="fill:#1f77b4;opacity:0.5;"/>
   </g>
   <g id="patch_98">
    <path clip-path="url(#p0af0033d15)" d="M 481.712397 512.64 
L 485.81157 512.64 
L 485.81157 512.026938 
L 481.712397 512.026938 
z
" style="fill:#1f77b4;opacity:0.5;"/>
   </g>
   <g id="patch_99">
    <path clip-path="url(#p0af0033d15)" d="M 485.81157 512.64 
L 489.910744 512.64 
L 489.910744 512.026938 
L 485.81157 512.026938 
z
" style="fill:#1f77b4;opacity:0.5;"/>
   </g>
   <g id="patch_100">
    <path clip-path="url(#p0af0033d15)" d="M 489.910744 512.64 
L 494.009917 512.64 
L 494.009917 511.413875 
L 489.910744 511.413875 
z
" style="fill:#1f77b4;opacity:0.5;"/>
   </g>
   <g id="patch_101">
    <path clip-path="url(#p0af0033d15)" d="M 494.009917 512.64 
L 498.109091 512.64 
L 498.109091 512.64 
L 494.009917 512.64 
z
" style="fill:#1f77b4;opacity:0.5;"/>
   </g>
   <g id="patch_102">
    <path clip-path="url(#p0af0033d15)" d="M 92.290909 512.64 
L 96.390083 512.64 
L 96.390083 450.720697 
L 92.290909 450.720697 
z
" style="fill:#ff7f0e;opacity:0.5;"/>
   </g>
   <g id="patch_103">
    <path clip-path="url(#p0af0033d15)" d="M 96.390083 512.64 
L 100.489256 512.64 
L 100.489256 393.705893 
L 96.390083 393.705893 
z
" style="fill:#ff7f0e;opacity:0.5;"/>
   </g>
   <g id="patch_104">
    <path clip-path="url(#p0af0033d15)" d="M 100.489256 512.64 
L 104.58843 512.64 
L 104.58843 402.288766 
L 100.489256 402.288766 
z
" style="fill:#ff7f0e;opacity:0.5;"/>
   </g>
   <g id="patch_105">
    <path clip-path="url(#p0af0033d15)" d="M 104.58843 512.64 
L 108.687603 512.64 
L 108.687603 434.781074 
L 104.58843 434.781074 
z
" style="fill:#ff7f0e;opacity:0.5;"/>
   </g>
   <g id="patch_106">
    <path clip-path="url(#p0af0033d15)" d="M 108.687603 512.64 
L 112.786777 512.64 
L 112.786777 440.911698 
L 108.687603 440.911698 
z
" style="fill:#ff7f0e;opacity:0.5;"/>
   </g>
   <g id="patch_107">
    <path clip-path="url(#p0af0033d15)" d="M 112.786777 512.64 
L 116.88595 512.64 
L 116.88595 461.75582 
L 112.786777 461.75582 
z
" style="fill:#ff7f0e;opacity:0.5;"/>
   </g>
   <g id="patch_108">
    <path clip-path="url(#p0af0033d15)" d="M 116.88595 512.64 
L 120.985124 512.64 
L 120.985124 468.499507 
L 116.88595 468.499507 
z
" style="fill:#ff7f0e;opacity:0.5;"/>
   </g>
   <g id="patch_109">
    <path clip-path="url(#p0af0033d15)" d="M 120.985124 512.64 
L 125.084298 512.64 
L 125.084298 480.760755 
L 120.985124 480.760755 
z
" style="fill:#ff7f0e;opacity:0.5;"/>
   </g>
   <g id="patch_110">
    <path clip-path="url(#p0af0033d15)" d="M 125.084298 512.64 
L 129.183471 512.64 
L 129.183471 487.504441 
L 125.084298 487.504441 
z
" style="fill:#ff7f0e;opacity:0.5;"/>
   </g>
   <g id="patch_111">
    <path clip-path="url(#p0af0033d15)" d="M 129.183471 512.64 
L 133.282645 512.64 
L 133.282645 489.956691 
L 129.183471 489.956691 
z
" style="fill:#ff7f0e;opacity:0.5;"/>
   </g>
   <g id="patch_112">
    <path clip-path="url(#p0af0033d15)" d="M 133.282645 512.64 
L 137.381818 512.64 
L 137.381818 490.569753 
L 133.282645 490.569753 
z
" style="fill:#ff7f0e;opacity:0.5;"/>
   </g>
   <g id="patch_113">
    <path clip-path="url(#p0af0033d15)" d="M 137.381818 512.64 
L 141.480992 512.64 
L 141.480992 496.700377 
L 137.381818 496.700377 
z
" style="fill:#ff7f0e;opacity:0.5;"/>
   </g>
   <g id="patch_114">
    <path clip-path="url(#p0af0033d15)" d="M 141.480992 512.64 
L 145.580165 512.64 
L 145.580165 498.539565 
L 141.480992 498.539565 
z
" style="fill:#ff7f0e;opacity:0.5;"/>
   </g>
   <g id="patch_115">
    <path clip-path="url(#p0af0033d15)" d="M 145.580165 512.64 
L 149.679339 512.64 
L 149.679339 497.31344 
L 145.580165 497.31344 
z
" style="fill:#ff7f0e;opacity:0.5;"/>
   </g>
   <g id="patch_116">
    <path clip-path="url(#p0af0033d15)" d="M 149.679339 512.64 
L 153.778512 512.64 
L 153.778512 501.604877 
L 149.679339 501.604877 
z
" style="fill:#ff7f0e;opacity:0.5;"/>
   </g>
   <g id="patch_117">
    <path clip-path="url(#p0af0033d15)" d="M 153.778512 512.64 
L 157.877686 512.64 
L 157.877686 497.31344 
L 153.778512 497.31344 
z
" style="fill:#ff7f0e;opacity:0.5;"/>
   </g>
   <g id="patch_118">
    <path clip-path="url(#p0af0033d15)" d="M 157.877686 512.64 
L 161.97686 512.64 
L 161.97686 496.087315 
L 157.877686 496.087315 
z
" style="fill:#ff7f0e;opacity:0.5;"/>
   </g>
   <g id="patch_119">
    <path clip-path="url(#p0af0033d15)" d="M 161.97686 512.64 
L 166.076033 512.64 
L 166.076033 502.831001 
L 161.97686 502.831001 
z
" style="fill:#ff7f0e;opacity:0.5;"/>
   </g>
   <g id="patch_120">
    <path clip-path="url(#p0af0033d15)" d="M 166.076033 512.64 
L 170.175207 512.64 
L 170.175207 504.670189 
L 166.076033 504.670189 
z
" style="fill:#ff7f0e;opacity:0.5;"/>
   </g>
   <g id="patch_121">
    <path clip-path="url(#p0af0033d15)" d="M 170.175207 512.64 
L 174.27438 512.64 
L 174.27438 504.670189 
L 170.175207 504.670189 
z
" style="fill:#ff7f0e;opacity:0.5;"/>
   </g>
   <g id="patch_122">
    <path clip-path="url(#p0af0033d15)" d="M 174.27438 512.64 
L 178.373554 512.64 
L 178.373554 501.604877 
L 174.27438 501.604877 
z
" style="fill:#ff7f0e;opacity:0.5;"/>
   </g>
   <g id="patch_123">
    <path clip-path="url(#p0af0033d15)" d="M 178.373554 512.64 
L 182.472727 512.64 
L 182.472727 507.735501 
L 178.373554 507.735501 
z
" style="fill:#ff7f0e;opacity:0.5;"/>
   </g>
   <g id="patch_124">
    <path clip-path="url(#p0af0033d15)" d="M 182.472727 512.64 
L 186.571901 512.64 
L 186.571901 504.057126 
L 182.472727 504.057126 
z
" style="fill:#ff7f0e;opacity:0.5;"/>
   </g>
   <g id="patch_125">
    <path clip-path="url(#p0af0033d15)" d="M 186.571901 512.64 
L 190.671074 512.64 
L 190.671074 505.283251 
L 186.571901 505.283251 
z
" style="fill:#ff7f0e;opacity:0.5;"/>
   </g>
   <g id="patch_126">
    <path clip-path="url(#p0af0033d15)" d="M 190.671074 512.64 
L 194.770248 512.64 
L 194.770248 510.800813 
L 190.671074 510.800813 
z
" style="fill:#ff7f0e;opacity:0.5;"/>
   </g>
   <g id="patch_127">
    <path clip-path="url(#p0af0033d15)" d="M 194.770248 512.64 
L 198.869421 512.64 
L 198.869421 506.509376 
L 194.770248 506.509376 
z
" style="fill:#ff7f0e;opacity:0.5;"/>
   </g>
   <g id="patch_128">
    <path clip-path="url(#p0af0033d15)" d="M 198.869421 512.64 
L 202.968595 512.64 
L 202.968595 508.348563 
L 198.869421 508.348563 
z
" style="fill:#ff7f0e;opacity:0.5;"/>
   </g>
   <g id="patch_129">
    <path clip-path="url(#p0af0033d15)" d="M 202.968595 512.64 
L 207.067769 512.64 
L 207.067769 508.348563 
L 202.968595 508.348563 
z
" style="fill:#ff7f0e;opacity:0.5;"/>
   </g>
   <g id="patch_130">
    <path clip-path="url(#p0af0033d15)" d="M 207.067769 512.64 
L 211.166942 512.64 
L 211.166942 508.348563 
L 207.067769 508.348563 
z
" style="fill:#ff7f0e;opacity:0.5;"/>
   </g>
   <g id="patch_131">
    <path clip-path="url(#p0af0033d15)" d="M 211.166942 512.64 
L 215.266116 512.64 
L 215.266116 508.348563 
L 211.166942 508.348563 
z
" style="fill:#ff7f0e;opacity:0.5;"/>
   </g>
   <g id="patch_132">
    <path clip-path="url(#p0af0033d15)" d="M 215.266116 512.64 
L 219.365289 512.64 
L 219.365289 508.961626 
L 215.266116 508.961626 
z
" style="fill:#ff7f0e;opacity:0.5;"/>
   </g>
   <g id="patch_133">
    <path clip-path="url(#p0af0033d15)" d="M 219.365289 512.64 
L 223.464463 512.64 
L 223.464463 508.961626 
L 219.365289 508.961626 
z
" style="fill:#ff7f0e;opacity:0.5;"/>
   </g>
   <g id="patch_134">
    <path clip-path="url(#p0af0033d15)" d="M 223.464463 512.64 
L 227.563636 512.64 
L 227.563636 508.961626 
L 223.464463 508.961626 
z
" style="fill:#ff7f0e;opacity:0.5;"/>
   </g>
   <g id="patch_135">
    <path clip-path="url(#p0af0033d15)" d="M 227.563636 512.64 
L 231.66281 512.64 
L 231.66281 510.18775 
L 227.563636 510.18775 
z
" style="fill:#ff7f0e;opacity:0.5;"/>
   </g>
   <g id="patch_136">
    <path clip-path="url(#p0af0033d15)" d="M 231.66281 512.64 
L 235.761983 512.64 
L 235.761983 510.18775 
L 231.66281 510.18775 
z
" style="fill:#ff7f0e;opacity:0.5;"/>
   </g>
   <g id="patch_137">
    <path clip-path="url(#p0af0033d15)" d="M 235.761983 512.64 
L 239.861157 512.64 
L 239.861157 508.348563 
L 235.761983 508.348563 
z
" style="fill:#ff7f0e;opacity:0.5;"/>
   </g>
   <g id="patch_138">
    <path clip-path="url(#p0af0033d15)" d="M 239.861157 512.64 
L 243.960331 512.64 
L 243.960331 507.735501 
L 239.861157 507.735501 
z
" style="fill:#ff7f0e;opacity:0.5;"/>
   </g>
   <g id="patch_139">
    <path clip-path="url(#p0af0033d15)" d="M 243.960331 512.64 
L 248.059504 512.64 
L 248.059504 509.574688 
L 243.960331 509.574688 
z
" style="fill:#ff7f0e;opacity:0.5;"/>
   </g>
   <g id="patch_140">
    <path clip-path="url(#p0af0033d15)" d="M 248.059504 512.64 
L 252.158678 512.64 
L 252.158678 511.413875 
L 248.059504 511.413875 
z
" style="fill:#ff7f0e;opacity:0.5;"/>
   </g>
   <g id="patch_141">
    <path clip-path="url(#p0af0033d15)" d="M 252.158678 512.64 
L 256.257851 512.64 
L 256.257851 510.18775 
L 252.158678 510.18775 
z
" style="fill:#ff7f0e;opacity:0.5;"/>
   </g>
   <g id="patch_142">
    <path clip-path="url(#p0af0033d15)" d="M 256.257851 512.64 
L 260.357025 512.64 
L 260.357025 510.18775 
L 256.257851 510.18775 
z
" style="fill:#ff7f0e;opacity:0.5;"/>
   </g>
   <g id="patch_143">
    <path clip-path="url(#p0af0033d15)" d="M 260.357025 512.64 
L 264.456198 512.64 
L 264.456198 510.18775 
L 260.357025 510.18775 
z
" style="fill:#ff7f0e;opacity:0.5;"/>
   </g>
   <g id="patch_144">
    <path clip-path="url(#p0af0033d15)" d="M 264.456198 512.64 
L 268.555372 512.64 
L 268.555372 509.574688 
L 264.456198 509.574688 
z
" style="fill:#ff7f0e;opacity:0.5;"/>
   </g>
   <g id="patch_145">
    <path clip-path="url(#p0af0033d15)" d="M 268.555372 512.64 
L 272.654545 512.64 
L 272.654545 511.413875 
L 268.555372 511.413875 
z
" style="fill:#ff7f0e;opacity:0.5;"/>
   </g>
   <g id="patch_146">
    <path clip-path="url(#p0af0033d15)" d="M 272.654545 512.64 
L 276.753719 512.64 
L 276.753719 508.961626 
L 272.654545 508.961626 
z
" style="fill:#ff7f0e;opacity:0.5;"/>
   </g>
   <g id="patch_147">
    <path clip-path="url(#p0af0033d15)" d="M 276.753719 512.64 
L 280.852893 512.64 
L 280.852893 512.64 
L 276.753719 512.64 
z
" style="fill:#ff7f0e;opacity:0.5;"/>
   </g>
   <g id="patch_148">
    <path clip-path="url(#p0af0033d15)" d="M 280.852893 512.64 
L 284.952066 512.64 
L 284.952066 508.348563 
L 280.852893 508.348563 
z
" style="fill:#ff7f0e;opacity:0.5;"/>
   </g>
   <g id="patch_149">
    <path clip-path="url(#p0af0033d15)" d="M 284.952066 512.64 
L 289.05124 512.64 
L 289.05124 512.026938 
L 284.952066 512.026938 
z
" style="fill:#ff7f0e;opacity:0.5;"/>
   </g>
   <g id="patch_150">
    <path clip-path="url(#p0af0033d15)" d="M 289.05124 512.64 
L 293.150413 512.64 
L 293.150413 510.800813 
L 289.05124 510.800813 
z
" style="fill:#ff7f0e;opacity:0.5;"/>
   </g>
   <g id="patch_151">
    <path clip-path="url(#p0af0033d15)" d="M 293.150413 512.64 
L 297.249587 512.64 
L 297.249587 511.413875 
L 293.150413 511.413875 
z
" style="fill:#ff7f0e;opacity:0.5;"/>
   </g>
   <g id="patch_152">
    <path clip-path="url(#p0af0033d15)" d="M 297.249587 512.64 
L 301.34876 512.64 
L 301.34876 511.413875 
L 297.249587 511.413875 
z
" style="fill:#ff7f0e;opacity:0.5;"/>
   </g>
   <g id="patch_153">
    <path clip-path="url(#p0af0033d15)" d="M 301.34876 512.64 
L 305.447934 512.64 
L 305.447934 509.574688 
L 301.34876 509.574688 
z
" style="fill:#ff7f0e;opacity:0.5;"/>
   </g>
   <g id="patch_154">
    <path clip-path="url(#p0af0033d15)" d="M 305.447934 512.64 
L 309.547107 512.64 
L 309.547107 512.026938 
L 305.447934 512.026938 
z
" style="fill:#ff7f0e;opacity:0.5;"/>
   </g>
   <g id="patch_155">
    <path clip-path="url(#p0af0033d15)" d="M 309.547107 512.64 
L 313.646281 512.64 
L 313.646281 510.18775 
L 309.547107 510.18775 
z
" style="fill:#ff7f0e;opacity:0.5;"/>
   </g>
   <g id="patch_156">
    <path clip-path="url(#p0af0033d15)" d="M 313.646281 512.64 
L 317.745455 512.64 
L 317.745455 508.961626 
L 313.646281 508.961626 
z
" style="fill:#ff7f0e;opacity:0.5;"/>
   </g>
   <g id="patch_157">
    <path clip-path="url(#p0af0033d15)" d="M 317.745455 512.64 
L 321.844628 512.64 
L 321.844628 511.413875 
L 317.745455 511.413875 
z
" style="fill:#ff7f0e;opacity:0.5;"/>
   </g>
   <g id="patch_158">
    <path clip-path="url(#p0af0033d15)" d="M 321.844628 512.64 
L 325.943802 512.64 
L 325.943802 510.18775 
L 321.844628 510.18775 
z
" style="fill:#ff7f0e;opacity:0.5;"/>
   </g>
   <g id="patch_159">
    <path clip-path="url(#p0af0033d15)" d="M 325.943802 512.64 
L 330.042975 512.64 
L 330.042975 511.413875 
L 325.943802 511.413875 
z
" style="fill:#ff7f0e;opacity:0.5;"/>
   </g>
   <g id="patch_160">
    <path clip-path="url(#p0af0033d15)" d="M 330.042975 512.64 
L 334.142149 512.64 
L 334.142149 512.026938 
L 330.042975 512.026938 
z
" style="fill:#ff7f0e;opacity:0.5;"/>
   </g>
   <g id="patch_161">
    <path clip-path="url(#p0af0033d15)" d="M 334.142149 512.64 
L 338.241322 512.64 
L 338.241322 510.800813 
L 334.142149 510.800813 
z
" style="fill:#ff7f0e;opacity:0.5;"/>
   </g>
   <g id="patch_162">
    <path clip-path="url(#p0af0033d15)" d="M 338.241322 512.64 
L 342.340496 512.64 
L 342.340496 511.413875 
L 338.241322 511.413875 
z
" style="fill:#ff7f0e;opacity:0.5;"/>
   </g>
   <g id="patch_163">
    <path clip-path="url(#p0af0033d15)" d="M 342.340496 512.64 
L 346.439669 512.64 
L 346.439669 512.64 
L 342.340496 512.64 
z
" style="fill:#ff7f0e;opacity:0.5;"/>
   </g>
   <g id="patch_164">
    <path clip-path="url(#p0af0033d15)" d="M 346.439669 512.64 
L 350.538843 512.64 
L 350.538843 510.800813 
L 346.439669 510.800813 
z
" style="fill:#ff7f0e;opacity:0.5;"/>
   </g>
   <g id="patch_165">
    <path clip-path="url(#p0af0033d15)" d="M 350.538843 512.64 
L 354.638017 512.64 
L 354.638017 512.64 
L 350.538843 512.64 
z
" style="fill:#ff7f0e;opacity:0.5;"/>
   </g>
   <g id="patch_166">
    <path clip-path="url(#p0af0033d15)" d="M 354.638017 512.64 
L 358.73719 512.64 
L 358.73719 512.026938 
L 354.638017 512.026938 
z
" style="fill:#ff7f0e;opacity:0.5;"/>
   </g>
   <g id="patch_167">
    <path clip-path="url(#p0af0033d15)" d="M 358.73719 512.64 
L 362.836364 512.64 
L 362.836364 510.800813 
L 358.73719 510.800813 
z
" style="fill:#ff7f0e;opacity:0.5;"/>
   </g>
   <g id="patch_168">
    <path clip-path="url(#p0af0033d15)" d="M 362.836364 512.64 
L 366.935537 512.64 
L 366.935537 512.64 
L 362.836364 512.64 
z
" style="fill:#ff7f0e;opacity:0.5;"/>
   </g>
   <g id="patch_169">
    <path clip-path="url(#p0af0033d15)" d="M 366.935537 512.64 
L 371.034711 512.64 
L 371.034711 511.413875 
L 366.935537 511.413875 
z
" style="fill:#ff7f0e;opacity:0.5;"/>
   </g>
   <g id="patch_170">
    <path clip-path="url(#p0af0033d15)" d="M 371.034711 512.64 
L 375.133884 512.64 
L 375.133884 512.64 
L 371.034711 512.64 
z
" style="fill:#ff7f0e;opacity:0.5;"/>
   </g>
   <g id="patch_171">
    <path clip-path="url(#p0af0033d15)" d="M 375.133884 512.64 
L 379.233058 512.64 
L 379.233058 510.800813 
L 375.133884 510.800813 
z
" style="fill:#ff7f0e;opacity:0.5;"/>
   </g>
   <g id="patch_172">
    <path clip-path="url(#p0af0033d15)" d="M 379.233058 512.64 
L 383.332231 512.64 
L 383.332231 510.800813 
L 379.233058 510.800813 
z
" style="fill:#ff7f0e;opacity:0.5;"/>
   </g>
   <g id="patch_173">
    <path clip-path="url(#p0af0033d15)" d="M 383.332231 512.64 
L 387.431405 512.64 
L 387.431405 511.413875 
L 383.332231 511.413875 
z
" style="fill:#ff7f0e;opacity:0.5;"/>
   </g>
   <g id="patch_174">
    <path clip-path="url(#p0af0033d15)" d="M 387.431405 512.64 
L 391.530579 512.64 
L 391.530579 512.64 
L 387.431405 512.64 
z
" style="fill:#ff7f0e;opacity:0.5;"/>
   </g>
   <g id="patch_175">
    <path clip-path="url(#p0af0033d15)" d="M 391.530579 512.64 
L 395.629752 512.64 
L 395.629752 512.64 
L 391.530579 512.64 
z
" style="fill:#ff7f0e;opacity:0.5;"/>
   </g>
   <g id="patch_176">
    <path clip-path="url(#p0af0033d15)" d="M 395.629752 512.64 
L 399.728926 512.64 
L 399.728926 512.026938 
L 395.629752 512.026938 
z
" style="fill:#ff7f0e;opacity:0.5;"/>
   </g>
   <g id="patch_177">
    <path clip-path="url(#p0af0033d15)" d="M 399.728926 512.64 
L 403.828099 512.64 
L 403.828099 510.800813 
L 399.728926 510.800813 
z
" style="fill:#ff7f0e;opacity:0.5;"/>
   </g>
   <g id="patch_178">
    <path clip-path="url(#p0af0033d15)" d="M 403.828099 512.64 
L 407.927273 512.64 
L 407.927273 511.413875 
L 403.828099 511.413875 
z
" style="fill:#ff7f0e;opacity:0.5;"/>
   </g>
   <g id="patch_179">
    <path clip-path="url(#p0af0033d15)" d="M 407.927273 512.64 
L 412.026446 512.64 
L 412.026446 512.64 
L 407.927273 512.64 
z
" style="fill:#ff7f0e;opacity:0.5;"/>
   </g>
   <g id="patch_180">
    <path clip-path="url(#p0af0033d15)" d="M 412.026446 512.64 
L 416.12562 512.64 
L 416.12562 511.413875 
L 412.026446 511.413875 
z
" style="fill:#ff7f0e;opacity:0.5;"/>
   </g>
   <g id="patch_181">
    <path clip-path="url(#p0af0033d15)" d="M 416.12562 512.64 
L 420.224793 512.64 
L 420.224793 511.413875 
L 416.12562 511.413875 
z
" style="fill:#ff7f0e;opacity:0.5;"/>
   </g>
   <g id="patch_182">
    <path clip-path="url(#p0af0033d15)" d="M 420.224793 512.64 
L 424.323967 512.64 
L 424.323967 511.413875 
L 420.224793 511.413875 
z
" style="fill:#ff7f0e;opacity:0.5;"/>
   </g>
   <g id="patch_183">
    <path clip-path="url(#p0af0033d15)" d="M 424.323967 512.64 
L 428.42314 512.64 
L 428.42314 511.413875 
L 424.323967 511.413875 
z
" style="fill:#ff7f0e;opacity:0.5;"/>
   </g>
   <g id="patch_184">
    <path clip-path="url(#p0af0033d15)" d="M 428.42314 512.64 
L 432.522314 512.64 
L 432.522314 510.18775 
L 428.42314 510.18775 
z
" style="fill:#ff7f0e;opacity:0.5;"/>
   </g>
   <g id="patch_185">
    <path clip-path="url(#p0af0033d15)" d="M 432.522314 512.64 
L 436.621488 512.64 
L 436.621488 512.026938 
L 432.522314 512.026938 
z
" style="fill:#ff7f0e;opacity:0.5;"/>
   </g>
   <g id="patch_186">
    <path clip-path="url(#p0af0033d15)" d="M 436.621488 512.64 
L 440.720661 512.64 
L 440.720661 512.026938 
L 436.621488 512.026938 
z
" style="fill:#ff7f0e;opacity:0.5;"/>
   </g>
   <g id="patch_187">
    <path clip-path="url(#p0af0033d15)" d="M 440.720661 512.64 
L 444.819835 512.64 
L 444.819835 511.413875 
L 440.720661 511.413875 
z
" style="fill:#ff7f0e;opacity:0.5;"/>
   </g>
   <g id="patch_188">
    <path clip-path="url(#p0af0033d15)" d="M 444.819835 512.64 
L 448.919008 512.64 
L 448.919008 512.026938 
L 444.819835 512.026938 
z
" style="fill:#ff7f0e;opacity:0.5;"/>
   </g>
   <g id="patch_189">
    <path clip-path="url(#p0af0033d15)" d="M 448.919008 512.64 
L 453.018182 512.64 
L 453.018182 512.026938 
L 448.919008 512.026938 
z
" style="fill:#ff7f0e;opacity:0.5;"/>
   </g>
   <g id="patch_190">
    <path clip-path="url(#p0af0033d15)" d="M 453.018182 512.64 
L 457.117355 512.64 
L 457.117355 512.026938 
L 453.018182 512.026938 
z
" style="fill:#ff7f0e;opacity:0.5;"/>
   </g>
   <g id="patch_191">
    <path clip-path="url(#p0af0033d15)" d="M 457.117355 512.64 
L 461.216529 512.64 
L 461.216529 510.800813 
L 457.117355 510.800813 
z
" style="fill:#ff7f0e;opacity:0.5;"/>
   </g>
   <g id="patch_192">
    <path clip-path="url(#p0af0033d15)" d="M 461.216529 512.64 
L 465.315702 512.64 
L 465.315702 512.64 
L 461.216529 512.64 
z
" style="fill:#ff7f0e;opacity:0.5;"/>
   </g>
   <g id="patch_193">
    <path clip-path="url(#p0af0033d15)" d="M 465.315702 512.64 
L 469.414876 512.64 
L 469.414876 512.026938 
L 465.315702 512.026938 
z
" style="fill:#ff7f0e;opacity:0.5;"/>
   </g>
   <g id="patch_194">
    <path clip-path="url(#p0af0033d15)" d="M 469.414876 512.64 
L 473.51405 512.64 
L 473.51405 512.026938 
L 469.414876 512.026938 
z
" style="fill:#ff7f0e;opacity:0.5;"/>
   </g>
   <g id="patch_195">
    <path clip-path="url(#p0af0033d15)" d="M 473.51405 512.64 
L 477.613223 512.64 
L 477.613223 511.413875 
L 473.51405 511.413875 
z
" style="fill:#ff7f0e;opacity:0.5;"/>
   </g>
   <g id="patch_196">
    <path clip-path="url(#p0af0033d15)" d="M 477.613223 512.64 
L 481.712397 512.64 
L 481.712397 510.800813 
L 477.613223 510.800813 
z
" style="fill:#ff7f0e;opacity:0.5;"/>
   </g>
   <g id="patch_197">
    <path clip-path="url(#p0af0033d15)" d="M 481.712397 512.64 
L 485.81157 512.64 
L 485.81157 512.026938 
L 481.712397 512.026938 
z
" style="fill:#ff7f0e;opacity:0.5;"/>
   </g>
   <g id="patch_198">
    <path clip-path="url(#p0af0033d15)" d="M 485.81157 512.64 
L 489.910744 512.64 
L 489.910744 512.026938 
L 485.81157 512.026938 
z
" style="fill:#ff7f0e;opacity:0.5;"/>
   </g>
   <g id="patch_199">
    <path clip-path="url(#p0af0033d15)" d="M 489.910744 512.64 
L 494.009917 512.64 
L 494.009917 511.413875 
L 489.910744 511.413875 
z
" style="fill:#ff7f0e;opacity:0.5;"/>
   </g>
   <g id="patch_200">
    <path clip-path="url(#p0af0033d15)" d="M 494.009917 512.64 
L 498.109091 512.64 
L 498.109091 512.64 
L 494.009917 512.64 
z
" style="fill:#ff7f0e;opacity:0.5;"/>
   </g>
   <g id="matplotlib.axis_1">
    <g id="xtick_1">
     <g id="line2d_1">
      <defs>
       <path d="M 0 0 
L 0 3.5 
" id="mffff749b1f" style="stroke:#000000;stroke-width:0.8;"/>
      </defs>
      <g>
       <use style="stroke:#000000;stroke-width:0.8;" x="92.290909" xlink:href="#mffff749b1f" y="512.64"/>
      </g>
     </g>
     <g id="text_1">
      <!-- 0.0 -->
      <g transform="translate(84.339347 527.238438)scale(0.1 -0.1)">
       <defs>
        <path d="M 31.78125 66.40625 
Q 24.171875 66.40625 20.328125 58.90625 
Q 16.5 51.421875 16.5 36.375 
Q 16.5 21.390625 20.328125 13.890625 
Q 24.171875 6.390625 31.78125 6.390625 
Q 39.453125 6.390625 43.28125 13.890625 
Q 47.125 21.390625 47.125 36.375 
Q 47.125 51.421875 43.28125 58.90625 
Q 39.453125 66.40625 31.78125 66.40625 
z
M 31.78125 74.21875 
Q 44.046875 74.21875 50.515625 64.515625 
Q 56.984375 54.828125 56.984375 36.375 
Q 56.984375 17.96875 50.515625 8.265625 
Q 44.046875 -1.421875 31.78125 -1.421875 
Q 19.53125 -1.421875 13.0625 8.265625 
Q 6.59375 17.96875 6.59375 36.375 
Q 6.59375 54.828125 13.0625 64.515625 
Q 19.53125 74.21875 31.78125 74.21875 
z
" id="DejaVuSans-48"/>
        <path d="M 10.6875 12.40625 
L 21 12.40625 
L 21 0 
L 10.6875 0 
z
" id="DejaVuSans-46"/>
       </defs>
       <use xlink:href="#DejaVuSans-48"/>
       <use x="63.623047" xlink:href="#DejaVuSans-46"/>
       <use x="95.410156" xlink:href="#DejaVuSans-48"/>
      </g>
     </g>
    </g>
    <g id="xtick_2">
     <g id="line2d_2">
      <g>
       <use style="stroke:#000000;stroke-width:0.8;" x="174.27438" xlink:href="#mffff749b1f" y="512.64"/>
      </g>
     </g>
     <g id="text_2">
      <!-- 0.2 -->
      <g transform="translate(166.322818 527.238438)scale(0.1 -0.1)">
       <defs>
        <path d="M 19.1875 8.296875 
L 53.609375 8.296875 
L 53.609375 0 
L 7.328125 0 
L 7.328125 8.296875 
Q 12.9375 14.109375 22.625 23.890625 
Q 32.328125 33.6875 34.8125 36.53125 
Q 39.546875 41.84375 41.421875 45.53125 
Q 43.3125 49.21875 43.3125 52.78125 
Q 43.3125 58.59375 39.234375 62.25 
Q 35.15625 65.921875 28.609375 65.921875 
Q 23.96875 65.921875 18.8125 64.3125 
Q 13.671875 62.703125 7.8125 59.421875 
L 7.8125 69.390625 
Q 13.765625 71.78125 18.9375 73 
Q 24.125 74.21875 28.421875 74.21875 
Q 39.75 74.21875 46.484375 68.546875 
Q 53.21875 62.890625 53.21875 53.421875 
Q 53.21875 48.921875 51.53125 44.890625 
Q 49.859375 40.875 45.40625 35.40625 
Q 44.1875 33.984375 37.640625 27.21875 
Q 31.109375 20.453125 19.1875 8.296875 
z
" id="DejaVuSans-50"/>
       </defs>
       <use xlink:href="#DejaVuSans-48"/>
       <use x="63.623047" xlink:href="#DejaVuSans-46"/>
       <use x="95.410156" xlink:href="#DejaVuSans-50"/>
      </g>
     </g>
    </g>
    <g id="xtick_3">
     <g id="line2d_3">
      <g>
       <use style="stroke:#000000;stroke-width:0.8;" x="256.257851" xlink:href="#mffff749b1f" y="512.64"/>
      </g>
     </g>
     <g id="text_3">
      <!-- 0.4 -->
      <g transform="translate(248.306289 527.238438)scale(0.1 -0.1)">
       <defs>
        <path d="M 37.796875 64.3125 
L 12.890625 25.390625 
L 37.796875 25.390625 
z
M 35.203125 72.90625 
L 47.609375 72.90625 
L 47.609375 25.390625 
L 58.015625 25.390625 
L 58.015625 17.1875 
L 47.609375 17.1875 
L 47.609375 0 
L 37.796875 0 
L 37.796875 17.1875 
L 4.890625 17.1875 
L 4.890625 26.703125 
z
" id="DejaVuSans-52"/>
       </defs>
       <use xlink:href="#DejaVuSans-48"/>
       <use x="63.623047" xlink:href="#DejaVuSans-46"/>
       <use x="95.410156" xlink:href="#DejaVuSans-52"/>
      </g>
     </g>
    </g>
    <g id="xtick_4">
     <g id="line2d_4">
      <g>
       <use style="stroke:#000000;stroke-width:0.8;" x="338.241322" xlink:href="#mffff749b1f" y="512.64"/>
      </g>
     </g>
     <g id="text_4">
      <!-- 0.6 -->
      <g transform="translate(330.28976 527.238438)scale(0.1 -0.1)">
       <defs>
        <path d="M 33.015625 40.375 
Q 26.375 40.375 22.484375 35.828125 
Q 18.609375 31.296875 18.609375 23.390625 
Q 18.609375 15.53125 22.484375 10.953125 
Q 26.375 6.390625 33.015625 6.390625 
Q 39.65625 6.390625 43.53125 10.953125 
Q 47.40625 15.53125 47.40625 23.390625 
Q 47.40625 31.296875 43.53125 35.828125 
Q 39.65625 40.375 33.015625 40.375 
z
M 52.59375 71.296875 
L 52.59375 62.3125 
Q 48.875 64.0625 45.09375 64.984375 
Q 41.3125 65.921875 37.59375 65.921875 
Q 27.828125 65.921875 22.671875 59.328125 
Q 17.53125 52.734375 16.796875 39.40625 
Q 19.671875 43.65625 24.015625 45.921875 
Q 28.375 48.1875 33.59375 48.1875 
Q 44.578125 48.1875 50.953125 41.515625 
Q 57.328125 34.859375 57.328125 23.390625 
Q 57.328125 12.15625 50.6875 5.359375 
Q 44.046875 -1.421875 33.015625 -1.421875 
Q 20.359375 -1.421875 13.671875 8.265625 
Q 6.984375 17.96875 6.984375 36.375 
Q 6.984375 53.65625 15.1875 63.9375 
Q 23.390625 74.21875 37.203125 74.21875 
Q 40.921875 74.21875 44.703125 73.484375 
Q 48.484375 72.75 52.59375 71.296875 
z
" id="DejaVuSans-54"/>
       </defs>
       <use xlink:href="#DejaVuSans-48"/>
       <use x="63.623047" xlink:href="#DejaVuSans-46"/>
       <use x="95.410156" xlink:href="#DejaVuSans-54"/>
      </g>
     </g>
    </g>
    <g id="xtick_5">
     <g id="line2d_5">
      <g>
       <use style="stroke:#000000;stroke-width:0.8;" x="420.224793" xlink:href="#mffff749b1f" y="512.64"/>
      </g>
     </g>
     <g id="text_5">
      <!-- 0.8 -->
      <g transform="translate(412.273231 527.238438)scale(0.1 -0.1)">
       <defs>
        <path d="M 31.78125 34.625 
Q 24.75 34.625 20.71875 30.859375 
Q 16.703125 27.09375 16.703125 20.515625 
Q 16.703125 13.921875 20.71875 10.15625 
Q 24.75 6.390625 31.78125 6.390625 
Q 38.8125 6.390625 42.859375 10.171875 
Q 46.921875 13.96875 46.921875 20.515625 
Q 46.921875 27.09375 42.890625 30.859375 
Q 38.875 34.625 31.78125 34.625 
z
M 21.921875 38.8125 
Q 15.578125 40.375 12.03125 44.71875 
Q 8.5 49.078125 8.5 55.328125 
Q 8.5 64.0625 14.71875 69.140625 
Q 20.953125 74.21875 31.78125 74.21875 
Q 42.671875 74.21875 48.875 69.140625 
Q 55.078125 64.0625 55.078125 55.328125 
Q 55.078125 49.078125 51.53125 44.71875 
Q 48 40.375 41.703125 38.8125 
Q 48.828125 37.15625 52.796875 32.3125 
Q 56.78125 27.484375 56.78125 20.515625 
Q 56.78125 9.90625 50.3125 4.234375 
Q 43.84375 -1.421875 31.78125 -1.421875 
Q 19.734375 -1.421875 13.25 4.234375 
Q 6.78125 9.90625 6.78125 20.515625 
Q 6.78125 27.484375 10.78125 32.3125 
Q 14.796875 37.15625 21.921875 38.8125 
z
M 18.3125 54.390625 
Q 18.3125 48.734375 21.84375 45.5625 
Q 25.390625 42.390625 31.78125 42.390625 
Q 38.140625 42.390625 41.71875 45.5625 
Q 45.3125 48.734375 45.3125 54.390625 
Q 45.3125 60.0625 41.71875 63.234375 
Q 38.140625 66.40625 31.78125 66.40625 
Q 25.390625 66.40625 21.84375 63.234375 
Q 18.3125 60.0625 18.3125 54.390625 
z
" id="DejaVuSans-56"/>
       </defs>
       <use xlink:href="#DejaVuSans-48"/>
       <use x="63.623047" xlink:href="#DejaVuSans-46"/>
       <use x="95.410156" xlink:href="#DejaVuSans-56"/>
      </g>
     </g>
    </g>
    <g id="xtick_6">
     <g id="line2d_6">
      <g>
       <use style="stroke:#000000;stroke-width:0.8;" x="502.208264" xlink:href="#mffff749b1f" y="512.64"/>
      </g>
     </g>
     <g id="text_6">
      <!-- 1.0 -->
      <g transform="translate(494.256702 527.238438)scale(0.1 -0.1)">
       <defs>
        <path d="M 12.40625 8.296875 
L 28.515625 8.296875 
L 28.515625 63.921875 
L 10.984375 60.40625 
L 10.984375 69.390625 
L 28.421875 72.90625 
L 38.28125 72.90625 
L 38.28125 8.296875 
L 54.390625 8.296875 
L 54.390625 0 
L 12.40625 0 
z
" id="DejaVuSans-49"/>
       </defs>
       <use xlink:href="#DejaVuSans-49"/>
       <use x="63.623047" xlink:href="#DejaVuSans-46"/>
       <use x="95.410156" xlink:href="#DejaVuSans-48"/>
      </g>
     </g>
    </g>
    <g id="text_7">
     <!-- Population -->
     <g transform="translate(268.933594 540.916563)scale(0.1 -0.1)">
      <defs>
       <path d="M 19.671875 64.796875 
L 19.671875 37.40625 
L 32.078125 37.40625 
Q 38.96875 37.40625 42.71875 40.96875 
Q 46.484375 44.53125 46.484375 51.125 
Q 46.484375 57.671875 42.71875 61.234375 
Q 38.96875 64.796875 32.078125 64.796875 
z
M 9.8125 72.90625 
L 32.078125 72.90625 
Q 44.34375 72.90625 50.609375 67.359375 
Q 56.890625 61.8125 56.890625 51.125 
Q 56.890625 40.328125 50.609375 34.8125 
Q 44.34375 29.296875 32.078125 29.296875 
L 19.671875 29.296875 
L 19.671875 0 
L 9.8125 0 
z
" id="DejaVuSans-80"/>
       <path d="M 30.609375 48.390625 
Q 23.390625 48.390625 19.1875 42.75 
Q 14.984375 37.109375 14.984375 27.296875 
Q 14.984375 17.484375 19.15625 11.84375 
Q 23.34375 6.203125 30.609375 6.203125 
Q 37.796875 6.203125 41.984375 11.859375 
Q 46.1875 17.53125 46.1875 27.296875 
Q 46.1875 37.015625 41.984375 42.703125 
Q 37.796875 48.390625 30.609375 48.390625 
z
M 30.609375 56 
Q 42.328125 56 49.015625 48.375 
Q 55.71875 40.765625 55.71875 27.296875 
Q 55.71875 13.875 49.015625 6.21875 
Q 42.328125 -1.421875 30.609375 -1.421875 
Q 18.84375 -1.421875 12.171875 6.21875 
Q 5.515625 13.875 5.515625 27.296875 
Q 5.515625 40.765625 12.171875 48.375 
Q 18.84375 56 30.609375 56 
z
" id="DejaVuSans-111"/>
       <path d="M 18.109375 8.203125 
L 18.109375 -20.796875 
L 9.078125 -20.796875 
L 9.078125 54.6875 
L 18.109375 54.6875 
L 18.109375 46.390625 
Q 20.953125 51.265625 25.265625 53.625 
Q 29.59375 56 35.59375 56 
Q 45.5625 56 51.78125 48.09375 
Q 58.015625 40.1875 58.015625 27.296875 
Q 58.015625 14.40625 51.78125 6.484375 
Q 45.5625 -1.421875 35.59375 -1.421875 
Q 29.59375 -1.421875 25.265625 0.953125 
Q 20.953125 3.328125 18.109375 8.203125 
z
M 48.6875 27.296875 
Q 48.6875 37.203125 44.609375 42.84375 
Q 40.53125 48.484375 33.40625 48.484375 
Q 26.265625 48.484375 22.1875 42.84375 
Q 18.109375 37.203125 18.109375 27.296875 
Q 18.109375 17.390625 22.1875 11.75 
Q 26.265625 6.109375 33.40625 6.109375 
Q 40.53125 6.109375 44.609375 11.75 
Q 48.6875 17.390625 48.6875 27.296875 
z
" id="DejaVuSans-112"/>
       <path d="M 8.5 21.578125 
L 8.5 54.6875 
L 17.484375 54.6875 
L 17.484375 21.921875 
Q 17.484375 14.15625 20.5 10.265625 
Q 23.53125 6.390625 29.59375 6.390625 
Q 36.859375 6.390625 41.078125 11.03125 
Q 45.3125 15.671875 45.3125 23.6875 
L 45.3125 54.6875 
L 54.296875 54.6875 
L 54.296875 0 
L 45.3125 0 
L 45.3125 8.40625 
Q 42.046875 3.421875 37.71875 1 
Q 33.40625 -1.421875 27.6875 -1.421875 
Q 18.265625 -1.421875 13.375 4.4375 
Q 8.5 10.296875 8.5 21.578125 
z
M 31.109375 56 
z
" id="DejaVuSans-117"/>
       <path d="M 9.421875 75.984375 
L 18.40625 75.984375 
L 18.40625 0 
L 9.421875 0 
z
" id="DejaVuSans-108"/>
       <path d="M 34.28125 27.484375 
Q 23.390625 27.484375 19.1875 25 
Q 14.984375 22.515625 14.984375 16.5 
Q 14.984375 11.71875 18.140625 8.90625 
Q 21.296875 6.109375 26.703125 6.109375 
Q 34.1875 6.109375 38.703125 11.40625 
Q 43.21875 16.703125 43.21875 25.484375 
L 43.21875 27.484375 
z
M 52.203125 31.203125 
L 52.203125 0 
L 43.21875 0 
L 43.21875 8.296875 
Q 40.140625 3.328125 35.546875 0.953125 
Q 30.953125 -1.421875 24.3125 -1.421875 
Q 15.921875 -1.421875 10.953125 3.296875 
Q 6 8.015625 6 15.921875 
Q 6 25.140625 12.171875 29.828125 
Q 18.359375 34.515625 30.609375 34.515625 
L 43.21875 34.515625 
L 43.21875 35.40625 
Q 43.21875 41.609375 39.140625 45 
Q 35.0625 48.390625 27.6875 48.390625 
Q 23 48.390625 18.546875 47.265625 
Q 14.109375 46.140625 10.015625 43.890625 
L 10.015625 52.203125 
Q 14.9375 54.109375 19.578125 55.046875 
Q 24.21875 56 28.609375 56 
Q 40.484375 56 46.34375 49.84375 
Q 52.203125 43.703125 52.203125 31.203125 
z
" id="DejaVuSans-97"/>
       <path d="M 18.3125 70.21875 
L 18.3125 54.6875 
L 36.8125 54.6875 
L 36.8125 47.703125 
L 18.3125 47.703125 
L 18.3125 18.015625 
Q 18.3125 11.328125 20.140625 9.421875 
Q 21.96875 7.515625 27.59375 7.515625 
L 36.8125 7.515625 
L 36.8125 0 
L 27.59375 0 
Q 17.1875 0 13.234375 3.875 
Q 9.28125 7.765625 9.28125 18.015625 
L 9.28125 47.703125 
L 2.6875 47.703125 
L 2.6875 54.6875 
L 9.28125 54.6875 
L 9.28125 70.21875 
z
" id="DejaVuSans-116"/>
       <path d="M 9.421875 54.6875 
L 18.40625 54.6875 
L 18.40625 0 
L 9.421875 0 
z
M 9.421875 75.984375 
L 18.40625 75.984375 
L 18.40625 64.59375 
L 9.421875 64.59375 
z
" id="DejaVuSans-105"/>
       <path d="M 54.890625 33.015625 
L 54.890625 0 
L 45.90625 0 
L 45.90625 32.71875 
Q 45.90625 40.484375 42.875 44.328125 
Q 39.84375 48.1875 33.796875 48.1875 
Q 26.515625 48.1875 22.3125 43.546875 
Q 18.109375 38.921875 18.109375 30.90625 
L 18.109375 0 
L 9.078125 0 
L 9.078125 54.6875 
L 18.109375 54.6875 
L 18.109375 46.1875 
Q 21.34375 51.125 25.703125 53.5625 
Q 30.078125 56 35.796875 56 
Q 45.21875 56 50.046875 50.171875 
Q 54.890625 44.34375 54.890625 33.015625 
z
" id="DejaVuSans-110"/>
      </defs>
      <use xlink:href="#DejaVuSans-80"/>
      <use x="56.677734" xlink:href="#DejaVuSans-111"/>
      <use x="117.859375" xlink:href="#DejaVuSans-112"/>
      <use x="181.335938" xlink:href="#DejaVuSans-117"/>
      <use x="244.714844" xlink:href="#DejaVuSans-108"/>
      <use x="272.498047" xlink:href="#DejaVuSans-97"/>
      <use x="333.777344" xlink:href="#DejaVuSans-116"/>
      <use x="372.986328" xlink:href="#DejaVuSans-105"/>
      <use x="400.769531" xlink:href="#DejaVuSans-111"/>
      <use x="461.951172" xlink:href="#DejaVuSans-110"/>
     </g>
    </g>
    <g id="text_8">
     <!-- 1e6 -->
     <g transform="translate(499.521875 539.916563)scale(0.1 -0.1)">
      <defs>
       <path d="M 56.203125 29.59375 
L 56.203125 25.203125 
L 14.890625 25.203125 
Q 15.484375 15.921875 20.484375 11.0625 
Q 25.484375 6.203125 34.421875 6.203125 
Q 39.59375 6.203125 44.453125 7.46875 
Q 49.3125 8.734375 54.109375 11.28125 
L 54.109375 2.78125 
Q 49.265625 0.734375 44.1875 -0.34375 
Q 39.109375 -1.421875 33.890625 -1.421875 
Q 20.796875 -1.421875 13.15625 6.1875 
Q 5.515625 13.8125 5.515625 26.8125 
Q 5.515625 40.234375 12.765625 48.109375 
Q 20.015625 56 32.328125 56 
Q 43.359375 56 49.78125 48.890625 
Q 56.203125 41.796875 56.203125 29.59375 
z
M 47.21875 32.234375 
Q 47.125 39.59375 43.09375 43.984375 
Q 39.0625 48.390625 32.421875 48.390625 
Q 24.90625 48.390625 20.390625 44.140625 
Q 15.875 39.890625 15.1875 32.171875 
z
" id="DejaVuSans-101"/>
      </defs>
      <use xlink:href="#DejaVuSans-49"/>
      <use x="63.623047" xlink:href="#DejaVuSans-101"/>
      <use x="125.146484" xlink:href="#DejaVuSans-54"/>
     </g>
    </g>
   </g>
   <g id="matplotlib.axis_2">
    <g id="ytick_1">
     <g id="line2d_7">
      <defs>
       <path d="M 0 0 
L -3.5 0 
" id="mf1ef2149ed" style="stroke:#000000;stroke-width:0.8;"/>
      </defs>
      <g>
       <use style="stroke:#000000;stroke-width:0.8;" x="72" xlink:href="#mf1ef2149ed" y="512.64"/>
      </g>
     </g>
     <g id="text_9">
      <!-- 0 -->
      <g transform="translate(58.6375 516.439219)scale(0.1 -0.1)">
       <use xlink:href="#DejaVuSans-48"/>
      </g>
     </g>
    </g>
    <g id="ytick_2">
     <g id="line2d_8">
      <g>
       <use style="stroke:#000000;stroke-width:0.8;" x="72" xlink:href="#mf1ef2149ed" y="451.333759"/>
      </g>
     </g>
     <g id="text_10">
      <!-- 100 -->
      <g transform="translate(45.9125 455.132978)scale(0.1 -0.1)">
       <use xlink:href="#DejaVuSans-49"/>
       <use x="63.623047" xlink:href="#DejaVuSans-48"/>
       <use x="127.246094" xlink:href="#DejaVuSans-48"/>
      </g>
     </g>
    </g>
    <g id="ytick_3">
     <g id="line2d_9">
      <g>
       <use style="stroke:#000000;stroke-width:0.8;" x="72" xlink:href="#mf1ef2149ed" y="390.027518"/>
      </g>
     </g>
     <g id="text_11">
      <!-- 200 -->
      <g transform="translate(45.9125 393.826737)scale(0.1 -0.1)">
       <use xlink:href="#DejaVuSans-50"/>
       <use x="63.623047" xlink:href="#DejaVuSans-48"/>
       <use x="127.246094" xlink:href="#DejaVuSans-48"/>
      </g>
     </g>
    </g>
    <g id="ytick_4">
     <g id="line2d_10">
      <g>
       <use style="stroke:#000000;stroke-width:0.8;" x="72" xlink:href="#mf1ef2149ed" y="328.721277"/>
      </g>
     </g>
     <g id="text_12">
      <!-- 300 -->
      <g transform="translate(45.9125 332.520496)scale(0.1 -0.1)">
       <defs>
        <path d="M 40.578125 39.3125 
Q 47.65625 37.796875 51.625 33 
Q 55.609375 28.21875 55.609375 21.1875 
Q 55.609375 10.40625 48.1875 4.484375 
Q 40.765625 -1.421875 27.09375 -1.421875 
Q 22.515625 -1.421875 17.65625 -0.515625 
Q 12.796875 0.390625 7.625 2.203125 
L 7.625 11.71875 
Q 11.71875 9.328125 16.59375 8.109375 
Q 21.484375 6.890625 26.8125 6.890625 
Q 36.078125 6.890625 40.9375 10.546875 
Q 45.796875 14.203125 45.796875 21.1875 
Q 45.796875 27.640625 41.28125 31.265625 
Q 36.765625 34.90625 28.71875 34.90625 
L 20.21875 34.90625 
L 20.21875 43.015625 
L 29.109375 43.015625 
Q 36.375 43.015625 40.234375 45.921875 
Q 44.09375 48.828125 44.09375 54.296875 
Q 44.09375 59.90625 40.109375 62.90625 
Q 36.140625 65.921875 28.71875 65.921875 
Q 24.65625 65.921875 20.015625 65.03125 
Q 15.375 64.15625 9.8125 62.3125 
L 9.8125 71.09375 
Q 15.4375 72.65625 20.34375 73.4375 
Q 25.25 74.21875 29.59375 74.21875 
Q 40.828125 74.21875 47.359375 69.109375 
Q 53.90625 64.015625 53.90625 55.328125 
Q 53.90625 49.265625 50.4375 45.09375 
Q 46.96875 40.921875 40.578125 39.3125 
z
" id="DejaVuSans-51"/>
       </defs>
       <use xlink:href="#DejaVuSans-51"/>
       <use x="63.623047" xlink:href="#DejaVuSans-48"/>
       <use x="127.246094" xlink:href="#DejaVuSans-48"/>
      </g>
     </g>
    </g>
    <g id="ytick_5">
     <g id="line2d_11">
      <g>
       <use style="stroke:#000000;stroke-width:0.8;" x="72" xlink:href="#mf1ef2149ed" y="267.415036"/>
      </g>
     </g>
     <g id="text_13">
      <!-- 400 -->
      <g transform="translate(45.9125 271.214255)scale(0.1 -0.1)">
       <use xlink:href="#DejaVuSans-52"/>
       <use x="63.623047" xlink:href="#DejaVuSans-48"/>
       <use x="127.246094" xlink:href="#DejaVuSans-48"/>
      </g>
     </g>
    </g>
    <g id="ytick_6">
     <g id="line2d_12">
      <g>
       <use style="stroke:#000000;stroke-width:0.8;" x="72" xlink:href="#mf1ef2149ed" y="206.108795"/>
      </g>
     </g>
     <g id="text_14">
      <!-- 500 -->
      <g transform="translate(45.9125 209.908014)scale(0.1 -0.1)">
       <defs>
        <path d="M 10.796875 72.90625 
L 49.515625 72.90625 
L 49.515625 64.59375 
L 19.828125 64.59375 
L 19.828125 46.734375 
Q 21.96875 47.46875 24.109375 47.828125 
Q 26.265625 48.1875 28.421875 48.1875 
Q 40.625 48.1875 47.75 41.5 
Q 54.890625 34.8125 54.890625 23.390625 
Q 54.890625 11.625 47.5625 5.09375 
Q 40.234375 -1.421875 26.90625 -1.421875 
Q 22.3125 -1.421875 17.546875 -0.640625 
Q 12.796875 0.140625 7.71875 1.703125 
L 7.71875 11.625 
Q 12.109375 9.234375 16.796875 8.0625 
Q 21.484375 6.890625 26.703125 6.890625 
Q 35.15625 6.890625 40.078125 11.328125 
Q 45.015625 15.765625 45.015625 23.390625 
Q 45.015625 31 40.078125 35.4375 
Q 35.15625 39.890625 26.703125 39.890625 
Q 22.75 39.890625 18.8125 39.015625 
Q 14.890625 38.140625 10.796875 36.28125 
z
" id="DejaVuSans-53"/>
       </defs>
       <use xlink:href="#DejaVuSans-53"/>
       <use x="63.623047" xlink:href="#DejaVuSans-48"/>
       <use x="127.246094" xlink:href="#DejaVuSans-48"/>
      </g>
     </g>
    </g>
    <g id="ytick_7">
     <g id="line2d_13">
      <g>
       <use style="stroke:#000000;stroke-width:0.8;" x="72" xlink:href="#mf1ef2149ed" y="144.802554"/>
      </g>
     </g>
     <g id="text_15">
      <!-- 600 -->
      <g transform="translate(45.9125 148.601773)scale(0.1 -0.1)">
       <use xlink:href="#DejaVuSans-54"/>
       <use x="63.623047" xlink:href="#DejaVuSans-48"/>
       <use x="127.246094" xlink:href="#DejaVuSans-48"/>
      </g>
     </g>
    </g>
    <g id="ytick_8">
     <g id="line2d_14">
      <g>
       <use style="stroke:#000000;stroke-width:0.8;" x="72" xlink:href="#mf1ef2149ed" y="83.496313"/>
      </g>
     </g>
     <g id="text_16">
      <!-- 700 -->
      <g transform="translate(45.9125 87.295532)scale(0.1 -0.1)">
       <defs>
        <path d="M 8.203125 72.90625 
L 55.078125 72.90625 
L 55.078125 68.703125 
L 28.609375 0 
L 18.3125 0 
L 43.21875 64.59375 
L 8.203125 64.59375 
z
" id="DejaVuSans-55"/>
       </defs>
       <use xlink:href="#DejaVuSans-55"/>
       <use x="63.623047" xlink:href="#DejaVuSans-48"/>
       <use x="127.246094" xlink:href="#DejaVuSans-48"/>
      </g>
     </g>
    </g>
    <g id="text_17">
     <!-- Frequency -->
     <g transform="translate(39.832812 316.709687)rotate(-90)scale(0.1 -0.1)">
      <defs>
       <path d="M 9.8125 72.90625 
L 51.703125 72.90625 
L 51.703125 64.59375 
L 19.671875 64.59375 
L 19.671875 43.109375 
L 48.578125 43.109375 
L 48.578125 34.8125 
L 19.671875 34.8125 
L 19.671875 0 
L 9.8125 0 
z
" id="DejaVuSans-70"/>
       <path d="M 41.109375 46.296875 
Q 39.59375 47.171875 37.8125 47.578125 
Q 36.03125 48 33.890625 48 
Q 26.265625 48 22.1875 43.046875 
Q 18.109375 38.09375 18.109375 28.8125 
L 18.109375 0 
L 9.078125 0 
L 9.078125 54.6875 
L 18.109375 54.6875 
L 18.109375 46.1875 
Q 20.953125 51.171875 25.484375 53.578125 
Q 30.03125 56 36.53125 56 
Q 37.453125 56 38.578125 55.875 
Q 39.703125 55.765625 41.0625 55.515625 
z
" id="DejaVuSans-114"/>
       <path d="M 14.796875 27.296875 
Q 14.796875 17.390625 18.875 11.75 
Q 22.953125 6.109375 30.078125 6.109375 
Q 37.203125 6.109375 41.296875 11.75 
Q 45.40625 17.390625 45.40625 27.296875 
Q 45.40625 37.203125 41.296875 42.84375 
Q 37.203125 48.484375 30.078125 48.484375 
Q 22.953125 48.484375 18.875 42.84375 
Q 14.796875 37.203125 14.796875 27.296875 
z
M 45.40625 8.203125 
Q 42.578125 3.328125 38.25 0.953125 
Q 33.9375 -1.421875 27.875 -1.421875 
Q 17.96875 -1.421875 11.734375 6.484375 
Q 5.515625 14.40625 5.515625 27.296875 
Q 5.515625 40.1875 11.734375 48.09375 
Q 17.96875 56 27.875 56 
Q 33.9375 56 38.25 53.625 
Q 42.578125 51.265625 45.40625 46.390625 
L 45.40625 54.6875 
L 54.390625 54.6875 
L 54.390625 -20.796875 
L 45.40625 -20.796875 
z
" id="DejaVuSans-113"/>
       <path d="M 48.78125 52.59375 
L 48.78125 44.1875 
Q 44.96875 46.296875 41.140625 47.34375 
Q 37.3125 48.390625 33.40625 48.390625 
Q 24.65625 48.390625 19.8125 42.84375 
Q 14.984375 37.3125 14.984375 27.296875 
Q 14.984375 17.28125 19.8125 11.734375 
Q 24.65625 6.203125 33.40625 6.203125 
Q 37.3125 6.203125 41.140625 7.25 
Q 44.96875 8.296875 48.78125 10.40625 
L 48.78125 2.09375 
Q 45.015625 0.34375 40.984375 -0.53125 
Q 36.96875 -1.421875 32.421875 -1.421875 
Q 20.0625 -1.421875 12.78125 6.34375 
Q 5.515625 14.109375 5.515625 27.296875 
Q 5.515625 40.671875 12.859375 48.328125 
Q 20.21875 56 33.015625 56 
Q 37.15625 56 41.109375 55.140625 
Q 45.0625 54.296875 48.78125 52.59375 
z
" id="DejaVuSans-99"/>
       <path d="M 32.171875 -5.078125 
Q 28.375 -14.84375 24.75 -17.8125 
Q 21.140625 -20.796875 15.09375 -20.796875 
L 7.90625 -20.796875 
L 7.90625 -13.28125 
L 13.1875 -13.28125 
Q 16.890625 -13.28125 18.9375 -11.515625 
Q 21 -9.765625 23.484375 -3.21875 
L 25.09375 0.875 
L 2.984375 54.6875 
L 12.5 54.6875 
L 29.59375 11.921875 
L 46.6875 54.6875 
L 56.203125 54.6875 
z
" id="DejaVuSans-121"/>
      </defs>
      <use xlink:href="#DejaVuSans-70"/>
      <use x="50.269531" xlink:href="#DejaVuSans-114"/>
      <use x="89.132812" xlink:href="#DejaVuSans-101"/>
      <use x="150.65625" xlink:href="#DejaVuSans-113"/>
      <use x="214.132812" xlink:href="#DejaVuSans-117"/>
      <use x="277.511719" xlink:href="#DejaVuSans-101"/>
      <use x="339.035156" xlink:href="#DejaVuSans-110"/>
      <use x="402.414062" xlink:href="#DejaVuSans-99"/>
      <use x="457.394531" xlink:href="#DejaVuSans-121"/>
     </g>
    </g>
   </g>
   <g id="patch_201">
    <path d="M 72 512.64 
L 72 69.12 
" style="fill:none;stroke:#000000;stroke-linecap:square;stroke-linejoin:miter;stroke-width:0.8;"/>
   </g>
   <g id="patch_202">
    <path d="M 518.4 512.64 
L 518.4 69.12 
" style="fill:none;stroke:#000000;stroke-linecap:square;stroke-linejoin:miter;stroke-width:0.8;"/>
   </g>
   <g id="patch_203">
    <path d="M 72 512.64 
L 518.4 512.64 
" style="fill:none;stroke:#000000;stroke-linecap:square;stroke-linejoin:miter;stroke-width:0.8;"/>
   </g>
   <g id="patch_204">
    <path d="M 72 69.12 
L 518.4 69.12 
" style="fill:none;stroke:#000000;stroke-linecap:square;stroke-linejoin:miter;stroke-width:0.8;"/>
   </g>
   <g id="legend_1">
    <g id="patch_205">
     <path d="M 298.054688 106.47625 
L 511.4 106.47625 
Q 513.4 106.47625 513.4 104.47625 
L 513.4 76.12 
Q 513.4 74.12 511.4 74.12 
L 298.054688 74.12 
Q 296.054688 74.12 296.054688 76.12 
L 296.054688 104.47625 
Q 296.054688 106.47625 298.054688 106.47625 
z
" style="fill:#ffffff;opacity:0.8;stroke:#cccccc;stroke-linejoin:miter;"/>
    </g>
    <g id="patch_206">
     <path d="M 300.054688 85.718438 
L 320.054688 85.718438 
L 320.054688 78.718438 
L 300.054688 78.718438 
z
" style="fill:#1f77b4;opacity:0.5;"/>
    </g>
    <g id="text_18">
     <!-- All US Counties -->
     <g transform="translate(328.054688 85.718438)scale(0.1 -0.1)">
      <defs>
       <path d="M 34.1875 63.1875 
L 20.796875 26.90625 
L 47.609375 26.90625 
z
M 28.609375 72.90625 
L 39.796875 72.90625 
L 67.578125 0 
L 57.328125 0 
L 50.6875 18.703125 
L 17.828125 18.703125 
L 11.1875 0 
L 0.78125 0 
z
" id="DejaVuSans-65"/>
       <path id="DejaVuSans-32"/>
       <path d="M 8.6875 72.90625 
L 18.609375 72.90625 
L 18.609375 28.609375 
Q 18.609375 16.890625 22.84375 11.734375 
Q 27.09375 6.59375 36.625 6.59375 
Q 46.09375 6.59375 50.34375 11.734375 
Q 54.59375 16.890625 54.59375 28.609375 
L 54.59375 72.90625 
L 64.5 72.90625 
L 64.5 27.390625 
Q 64.5 13.140625 57.4375 5.859375 
Q 50.390625 -1.421875 36.625 -1.421875 
Q 22.796875 -1.421875 15.734375 5.859375 
Q 8.6875 13.140625 8.6875 27.390625 
z
" id="DejaVuSans-85"/>
       <path d="M 53.515625 70.515625 
L 53.515625 60.890625 
Q 47.90625 63.578125 42.921875 64.890625 
Q 37.9375 66.21875 33.296875 66.21875 
Q 25.25 66.21875 20.875 63.09375 
Q 16.5 59.96875 16.5 54.203125 
Q 16.5 49.359375 19.40625 46.890625 
Q 22.3125 44.4375 30.421875 42.921875 
L 36.375 41.703125 
Q 47.40625 39.59375 52.65625 34.296875 
Q 57.90625 29 57.90625 20.125 
Q 57.90625 9.515625 50.796875 4.046875 
Q 43.703125 -1.421875 29.984375 -1.421875 
Q 24.8125 -1.421875 18.96875 -0.25 
Q 13.140625 0.921875 6.890625 3.21875 
L 6.890625 13.375 
Q 12.890625 10.015625 18.65625 8.296875 
Q 24.421875 6.59375 29.984375 6.59375 
Q 38.421875 6.59375 43.015625 9.90625 
Q 47.609375 13.234375 47.609375 19.390625 
Q 47.609375 24.75 44.3125 27.78125 
Q 41.015625 30.8125 33.5 32.328125 
L 27.484375 33.5 
Q 16.453125 35.6875 11.515625 40.375 
Q 6.59375 45.0625 6.59375 53.421875 
Q 6.59375 63.09375 13.40625 68.65625 
Q 20.21875 74.21875 32.171875 74.21875 
Q 37.3125 74.21875 42.625 73.28125 
Q 47.953125 72.359375 53.515625 70.515625 
z
" id="DejaVuSans-83"/>
       <path d="M 64.40625 67.28125 
L 64.40625 56.890625 
Q 59.421875 61.53125 53.78125 63.8125 
Q 48.140625 66.109375 41.796875 66.109375 
Q 29.296875 66.109375 22.65625 58.46875 
Q 16.015625 50.828125 16.015625 36.375 
Q 16.015625 21.96875 22.65625 14.328125 
Q 29.296875 6.6875 41.796875 6.6875 
Q 48.140625 6.6875 53.78125 8.984375 
Q 59.421875 11.28125 64.40625 15.921875 
L 64.40625 5.609375 
Q 59.234375 2.09375 53.4375 0.328125 
Q 47.65625 -1.421875 41.21875 -1.421875 
Q 24.65625 -1.421875 15.125 8.703125 
Q 5.609375 18.84375 5.609375 36.375 
Q 5.609375 53.953125 15.125 64.078125 
Q 24.65625 74.21875 41.21875 74.21875 
Q 47.75 74.21875 53.53125 72.484375 
Q 59.328125 70.75 64.40625 67.28125 
z
" id="DejaVuSans-67"/>
       <path d="M 44.28125 53.078125 
L 44.28125 44.578125 
Q 40.484375 46.53125 36.375 47.5 
Q 32.28125 48.484375 27.875 48.484375 
Q 21.1875 48.484375 17.84375 46.4375 
Q 14.5 44.390625 14.5 40.28125 
Q 14.5 37.15625 16.890625 35.375 
Q 19.28125 33.59375 26.515625 31.984375 
L 29.59375 31.296875 
Q 39.15625 29.25 43.1875 25.515625 
Q 47.21875 21.78125 47.21875 15.09375 
Q 47.21875 7.46875 41.1875 3.015625 
Q 35.15625 -1.421875 24.609375 -1.421875 
Q 20.21875 -1.421875 15.453125 -0.5625 
Q 10.6875 0.296875 5.421875 2 
L 5.421875 11.28125 
Q 10.40625 8.6875 15.234375 7.390625 
Q 20.0625 6.109375 24.8125 6.109375 
Q 31.15625 6.109375 34.5625 8.28125 
Q 37.984375 10.453125 37.984375 14.40625 
Q 37.984375 18.0625 35.515625 20.015625 
Q 33.0625 21.96875 24.703125 23.78125 
L 21.578125 24.515625 
Q 13.234375 26.265625 9.515625 29.90625 
Q 5.8125 33.546875 5.8125 39.890625 
Q 5.8125 47.609375 11.28125 51.796875 
Q 16.75 56 26.8125 56 
Q 31.78125 56 36.171875 55.265625 
Q 40.578125 54.546875 44.28125 53.078125 
z
" id="DejaVuSans-115"/>
      </defs>
      <use xlink:href="#DejaVuSans-65"/>
      <use x="68.408203" xlink:href="#DejaVuSans-108"/>
      <use x="96.191406" xlink:href="#DejaVuSans-108"/>
      <use x="123.974609" xlink:href="#DejaVuSans-32"/>
      <use x="155.761719" xlink:href="#DejaVuSans-85"/>
      <use x="228.955078" xlink:href="#DejaVuSans-83"/>
      <use x="292.431641" xlink:href="#DejaVuSans-32"/>
      <use x="324.21875" xlink:href="#DejaVuSans-67"/>
      <use x="394.042969" xlink:href="#DejaVuSans-111"/>
      <use x="455.224609" xlink:href="#DejaVuSans-117"/>
      <use x="518.603516" xlink:href="#DejaVuSans-110"/>
      <use x="581.982422" xlink:href="#DejaVuSans-116"/>
      <use x="621.191406" xlink:href="#DejaVuSans-105"/>
      <use x="648.974609" xlink:href="#DejaVuSans-101"/>
      <use x="710.498047" xlink:href="#DejaVuSans-115"/>
     </g>
    </g>
    <g id="patch_207">
     <path d="M 300.054688 100.396563 
L 320.054688 100.396563 
L 320.054688 93.396563 
L 300.054688 93.396563 
z
" style="fill:#ff7f0e;opacity:0.5;"/>
    </g>
    <g id="text_19">
     <!-- All Counties with Reported Incidents -->
     <g transform="translate(328.054688 100.396563)scale(0.1 -0.1)">
      <defs>
       <path d="M 4.203125 54.6875 
L 13.1875 54.6875 
L 24.421875 12.015625 
L 35.59375 54.6875 
L 46.1875 54.6875 
L 57.421875 12.015625 
L 68.609375 54.6875 
L 77.59375 54.6875 
L 63.28125 0 
L 52.6875 0 
L 40.921875 44.828125 
L 29.109375 0 
L 18.5 0 
z
" id="DejaVuSans-119"/>
       <path d="M 54.890625 33.015625 
L 54.890625 0 
L 45.90625 0 
L 45.90625 32.71875 
Q 45.90625 40.484375 42.875 44.328125 
Q 39.84375 48.1875 33.796875 48.1875 
Q 26.515625 48.1875 22.3125 43.546875 
Q 18.109375 38.921875 18.109375 30.90625 
L 18.109375 0 
L 9.078125 0 
L 9.078125 75.984375 
L 18.109375 75.984375 
L 18.109375 46.1875 
Q 21.34375 51.125 25.703125 53.5625 
Q 30.078125 56 35.796875 56 
Q 45.21875 56 50.046875 50.171875 
Q 54.890625 44.34375 54.890625 33.015625 
z
" id="DejaVuSans-104"/>
       <path d="M 44.390625 34.1875 
Q 47.5625 33.109375 50.5625 29.59375 
Q 53.5625 26.078125 56.59375 19.921875 
L 66.609375 0 
L 56 0 
L 46.6875 18.703125 
Q 43.0625 26.03125 39.671875 28.421875 
Q 36.28125 30.8125 30.421875 30.8125 
L 19.671875 30.8125 
L 19.671875 0 
L 9.8125 0 
L 9.8125 72.90625 
L 32.078125 72.90625 
Q 44.578125 72.90625 50.734375 67.671875 
Q 56.890625 62.453125 56.890625 51.90625 
Q 56.890625 45.015625 53.6875 40.46875 
Q 50.484375 35.9375 44.390625 34.1875 
z
M 19.671875 64.796875 
L 19.671875 38.921875 
L 32.078125 38.921875 
Q 39.203125 38.921875 42.84375 42.21875 
Q 46.484375 45.515625 46.484375 51.90625 
Q 46.484375 58.296875 42.84375 61.546875 
Q 39.203125 64.796875 32.078125 64.796875 
z
" id="DejaVuSans-82"/>
       <path d="M 45.40625 46.390625 
L 45.40625 75.984375 
L 54.390625 75.984375 
L 54.390625 0 
L 45.40625 0 
L 45.40625 8.203125 
Q 42.578125 3.328125 38.25 0.953125 
Q 33.9375 -1.421875 27.875 -1.421875 
Q 17.96875 -1.421875 11.734375 6.484375 
Q 5.515625 14.40625 5.515625 27.296875 
Q 5.515625 40.1875 11.734375 48.09375 
Q 17.96875 56 27.875 56 
Q 33.9375 56 38.25 53.625 
Q 42.578125 51.265625 45.40625 46.390625 
z
M 14.796875 27.296875 
Q 14.796875 17.390625 18.875 11.75 
Q 22.953125 6.109375 30.078125 6.109375 
Q 37.203125 6.109375 41.296875 11.75 
Q 45.40625 17.390625 45.40625 27.296875 
Q 45.40625 37.203125 41.296875 42.84375 
Q 37.203125 48.484375 30.078125 48.484375 
Q 22.953125 48.484375 18.875 42.84375 
Q 14.796875 37.203125 14.796875 27.296875 
z
" id="DejaVuSans-100"/>
       <path d="M 9.8125 72.90625 
L 19.671875 72.90625 
L 19.671875 0 
L 9.8125 0 
z
" id="DejaVuSans-73"/>
      </defs>
      <use xlink:href="#DejaVuSans-65"/>
      <use x="68.408203" xlink:href="#DejaVuSans-108"/>
      <use x="96.191406" xlink:href="#DejaVuSans-108"/>
      <use x="123.974609" xlink:href="#DejaVuSans-32"/>
      <use x="155.761719" xlink:href="#DejaVuSans-67"/>
      <use x="225.585938" xlink:href="#DejaVuSans-111"/>
      <use x="286.767578" xlink:href="#DejaVuSans-117"/>
      <use x="350.146484" xlink:href="#DejaVuSans-110"/>
      <use x="413.525391" xlink:href="#DejaVuSans-116"/>
      <use x="452.734375" xlink:href="#DejaVuSans-105"/>
      <use x="480.517578" xlink:href="#DejaVuSans-101"/>
      <use x="542.041016" xlink:href="#DejaVuSans-115"/>
      <use x="594.140625" xlink:href="#DejaVuSans-32"/>
      <use x="625.927734" xlink:href="#DejaVuSans-119"/>
      <use x="707.714844" xlink:href="#DejaVuSans-105"/>
      <use x="735.498047" xlink:href="#DejaVuSans-116"/>
      <use x="774.707031" xlink:href="#DejaVuSans-104"/>
      <use x="838.085938" xlink:href="#DejaVuSans-32"/>
      <use x="869.873047" xlink:href="#DejaVuSans-82"/>
      <use x="934.855469" xlink:href="#DejaVuSans-101"/>
      <use x="996.378906" xlink:href="#DejaVuSans-112"/>
      <use x="1059.855469" xlink:href="#DejaVuSans-111"/>
      <use x="1121.037109" xlink:href="#DejaVuSans-114"/>
      <use x="1162.150391" xlink:href="#DejaVuSans-116"/>
      <use x="1201.359375" xlink:href="#DejaVuSans-101"/>
      <use x="1262.882812" xlink:href="#DejaVuSans-100"/>
      <use x="1326.359375" xlink:href="#DejaVuSans-32"/>
      <use x="1358.146484" xlink:href="#DejaVuSans-73"/>
      <use x="1387.638672" xlink:href="#DejaVuSans-110"/>
      <use x="1451.017578" xlink:href="#DejaVuSans-99"/>
      <use x="1505.998047" xlink:href="#DejaVuSans-105"/>
      <use x="1533.78125" xlink:href="#DejaVuSans-100"/>
      <use x="1597.257812" xlink:href="#DejaVuSans-101"/>
      <use x="1658.78125" xlink:href="#DejaVuSans-110"/>
      <use x="1722.160156" xlink:href="#DejaVuSans-116"/>
      <use x="1761.369141" xlink:href="#DejaVuSans-115"/>
     </g>
    </g>
   </g>
  </g>
 </g>
 <defs>
  <clipPath id="p0af0033d15">
   <rect height="443.52" width="446.4" x="72" y="69.12"/>
  </clipPath>
 </defs>
</svg>
